<?xml version="1.0" encoding="utf-8" standalone="no"?>
<!DOCTYPE svg PUBLIC "-//W3C//DTD SVG 1.1//EN"
  "http://www.w3.org/Graphics/SVG/1.1/DTD/svg11.dtd">
<svg xmlns:xlink="http://www.w3.org/1999/xlink" width="576pt" height="360pt" viewBox="0 0 576 360" xmlns="http://www.w3.org/2000/svg" version="1.1">
 <metadata>
  <rdf:RDF xmlns:dc="http://purl.org/dc/elements/1.1/" xmlns:cc="http://creativecommons.org/ns#" xmlns:rdf="http://www.w3.org/1999/02/22-rdf-syntax-ns#">
   <cc:Work>
    <dc:type rdf:resource="http://purl.org/dc/dcmitype/StillImage"/>
    <dc:date>2026-04-21T15:47:53.911807</dc:date>
    <dc:format>image/svg+xml</dc:format>
    <dc:creator>
     <cc:Agent>
      <dc:title>Matplotlib v3.10.8, https://matplotlib.org/</dc:title>
     </cc:Agent>
    </dc:creator>
   </cc:Work>
  </rdf:RDF>
 </metadata>
 <defs>
  <style type="text/css">*{stroke-linejoin: round; stroke-linecap: butt}</style>
 </defs>
 <g id="figure_1">
  <g id="patch_1">
   <path d="M 0 360 
L 576 360 
L 576 0 
L 0 0 
z
" style="fill: #ffffff"/>
  </g>
  <g id="axes_1">
   <g id="patch_2">
    <path d="M 54.02 272.387347 
L 565.2 272.387347 
L 565.2 41.856 
L 54.02 41.856 
z
" style="fill: #ffffff"/>
   </g>
   <g id="patch_3">
    <path d="M 77.255455 261.625824 
L 92.271565 261.625824 
L 92.271565 52.334698 
L 77.255455 52.334698 
z
" clip-path="url(#p84f02305bd)" style="fill: #d6604d; stroke: #000000; stroke-width: 0.4; stroke-linejoin: miter"/>
   </g>
   <g id="patch_4">
    <path d="M 116.771534 261.625824 
L 131.787644 261.625824 
L 131.787644 52.617523 
L 116.771534 52.617523 
z
" clip-path="url(#p84f02305bd)" style="fill: #d6604d; stroke: #000000; stroke-width: 0.4; stroke-linejoin: miter"/>
   </g>
   <g id="patch_5">
    <path d="M 156.287613 261.625824 
L 171.303723 261.625824 
L 171.303723 56.011434 
L 156.287613 56.011434 
z
" clip-path="url(#p84f02305bd)" style="fill: #d6604d; stroke: #000000; stroke-width: 0.4; stroke-linejoin: miter"/>
   </g>
   <g id="patch_6">
    <path d="M 195.803692 261.625824 
L 210.819802 261.625824 
L 210.819802 57.708389 
L 195.803692 57.708389 
z
" clip-path="url(#p84f02305bd)" style="fill: #d6604d; stroke: #000000; stroke-width: 0.4; stroke-linejoin: miter"/>
   </g>
   <g id="patch_7">
    <path d="M 235.319771 261.625824 
L 250.335881 261.625824 
L 250.335881 75.526417 
L 235.319771 75.526417 
z
" clip-path="url(#p84f02305bd)" style="fill: #d6604d; stroke: #000000; stroke-width: 0.4; stroke-linejoin: miter"/>
   </g>
   <g id="patch_8">
    <path d="M 274.83585 261.625824 
L 289.85196 261.625824 
L 289.85196 173.666986 
L 274.83585 173.666986 
z
" clip-path="url(#p84f02305bd)" style="fill: #b2182b; stroke: #000000; stroke-width: 0.4; stroke-linejoin: miter"/>
   </g>
   <g id="patch_9">
    <path d="M 314.351929 261.625824 
L 329.36804 261.625824 
L 329.36804 241.828015 
L 314.351929 241.828015 
z
" clip-path="url(#p84f02305bd)" style="fill: #2166ac; stroke: #000000; stroke-width: 0.4; stroke-linejoin: miter"/>
   </g>
   <g id="patch_10">
    <path d="M 353.868009 261.625824 
L 368.884119 261.625824 
L 368.884119 244.656273 
L 353.868009 244.656273 
z
" clip-path="url(#p84f02305bd)" style="fill: #2166ac; stroke: #000000; stroke-width: 0.4; stroke-linejoin: miter"/>
   </g>
   <g id="patch_11">
    <path d="M 393.384088 261.625824 
L 408.400198 261.625824 
L 408.400198 245.787577 
L 393.384088 245.787577 
z
" clip-path="url(#p84f02305bd)" style="fill: #2166ac; stroke: #000000; stroke-width: 0.4; stroke-linejoin: miter"/>
   </g>
   <g id="patch_12">
    <path d="M 432.900167 261.625824 
L 447.916277 261.625824 
L 447.916277 248.333009 
L 432.900167 248.333009 
z
" clip-path="url(#p84f02305bd)" style="fill: #2166ac; stroke: #000000; stroke-width: 0.4; stroke-linejoin: miter"/>
   </g>
   <g id="patch_13">
    <path d="M 472.416246 261.625824 
L 487.432356 261.625824 
L 487.432356 250.029964 
L 472.416246 250.029964 
z
" clip-path="url(#p84f02305bd)" style="fill: #2166ac; stroke: #000000; stroke-width: 0.4; stroke-linejoin: miter"/>
   </g>
   <g id="patch_14">
    <path d="M 511.932325 261.625824 
L 526.948435 261.625824 
L 526.948435 256.534959 
L 511.932325 256.534959 
z
" clip-path="url(#p84f02305bd)" style="fill: #2166ac; stroke: #000000; stroke-width: 0.4; stroke-linejoin: miter"/>
   </g>
   <g id="patch_15">
    <path d="M 92.271565 261.625824 
L 107.287675 261.625824 
L 107.287675 241.262363 
L 92.271565 241.262363 
z
" clip-path="url(#p84f02305bd)" style="fill: url(#hc4aabcacff); opacity: 0.7; stroke: #000000; stroke-width: 0.4; stroke-linejoin: miter"/>
   </g>
   <g id="patch_16">
    <path d="M 131.787644 261.625824 
L 146.803754 261.625824 
L 146.803754 240.13106 
L 131.787644 240.13106 
z
" clip-path="url(#p84f02305bd)" style="fill: url(#hc4aabcacff); opacity: 0.7; stroke: #000000; stroke-width: 0.4; stroke-linejoin: miter"/>
   </g>
   <g id="patch_17">
    <path d="M 171.303723 261.625824 
L 186.319833 261.625824 
L 186.319833 240.13106 
L 171.303723 240.13106 
z
" clip-path="url(#p84f02305bd)" style="fill: url(#hc4aabcacff); opacity: 0.7; stroke: #000000; stroke-width: 0.4; stroke-linejoin: miter"/>
   </g>
   <g id="patch_18">
    <path d="M 210.819802 261.625824 
L 225.835912 261.625824 
L 225.835912 241.828015 
L 210.819802 241.828015 
z
" clip-path="url(#p84f02305bd)" style="fill: url(#hc4aabcacff); opacity: 0.7; stroke: #000000; stroke-width: 0.4; stroke-linejoin: miter"/>
   </g>
   <g id="patch_19">
    <path d="M 250.335881 261.625824 
L 265.351991 261.625824 
L 265.351991 239.848234 
L 250.335881 239.848234 
z
" clip-path="url(#p84f02305bd)" style="fill: url(#hc4aabcacff); opacity: 0.7; stroke: #000000; stroke-width: 0.4; stroke-linejoin: miter"/>
   </g>
   <g id="patch_20">
    <path d="M 289.85196 261.625824 
L 304.868071 261.625824 
L 304.868071 242.959318 
L 289.85196 242.959318 
z
" clip-path="url(#p84f02305bd)" style="fill: url(#ha066093cb9); opacity: 0.7; stroke: #000000; stroke-width: 0.4; stroke-linejoin: miter"/>
   </g>
   <g id="patch_21">
    <path d="M 329.36804 261.625824 
L 344.38415 261.625824 
L 344.38415 258.231914 
L 329.36804 258.231914 
z
" clip-path="url(#p84f02305bd)" style="fill: url(#h50d7502e8a); opacity: 0.7; stroke: #000000; stroke-width: 0.4; stroke-linejoin: miter"/>
   </g>
   <g id="patch_22">
    <path d="M 368.884119 261.625824 
L 383.900229 261.625824 
L 383.900229 260.494521 
L 368.884119 260.494521 
z
" clip-path="url(#p84f02305bd)" style="fill: url(#h50d7502e8a); opacity: 0.7; stroke: #000000; stroke-width: 0.4; stroke-linejoin: miter"/>
   </g>
   <g id="patch_23">
    <path d="M 408.400198 261.625824 
L 423.416308 261.625824 
L 423.416308 253.423874 
L 408.400198 253.423874 
z
" clip-path="url(#p84f02305bd)" style="fill: url(#h50d7502e8a); opacity: 0.7; stroke: #000000; stroke-width: 0.4; stroke-linejoin: miter"/>
   </g>
   <g id="patch_24">
    <path d="M 447.916277 261.625824 
L 462.932387 261.625824 
L 462.932387 253.141049 
L 447.916277 253.141049 
z
" clip-path="url(#p84f02305bd)" style="fill: url(#h50d7502e8a); opacity: 0.7; stroke: #000000; stroke-width: 0.4; stroke-linejoin: miter"/>
   </g>
   <g id="patch_25">
    <path d="M 487.432356 261.625824 
L 502.448466 261.625824 
L 502.448466 261.90865 
L 487.432356 261.90865 
z
" clip-path="url(#p84f02305bd)" style="fill: url(#h50d7502e8a); opacity: 0.7; stroke: #000000; stroke-width: 0.4; stroke-linejoin: miter"/>
   </g>
   <g id="patch_26">
    <path d="M 526.948435 261.625824 
L 541.964545 261.625824 
L 541.964545 261.342998 
L 526.948435 261.342998 
z
" clip-path="url(#p84f02305bd)" style="fill: url(#h50d7502e8a); opacity: 0.7; stroke: #000000; stroke-width: 0.4; stroke-linejoin: miter"/>
   </g>
   <g id="matplotlib.axis_1">
    <g id="xtick_1">
     <g id="line2d_1">
      <defs>
       <path id="m9853bb47d6" d="M 0 0 
L 0 3.5 
" style="stroke: #000000; stroke-width: 0.8"/>
      </defs>
      <g>
       <use xlink:href="#m9853bb47d6" x="92.271565" y="272.387347" style="stroke: #000000; stroke-width: 0.8"/>
      </g>
     </g>
     <g id="text_1">
      <!-- kmer_murphy10_k5 -->
      <g transform="translate(27.470531 347.523494) rotate(-45) scale(0.09 -0.09)">
       <defs>
        <path id="DejaVuSans-6b" d="M 581 4863 
L 1159 4863 
L 1159 1991 
L 2875 3500 
L 3609 3500 
L 1753 1863 
L 3688 0 
L 2938 0 
L 1159 1709 
L 1159 0 
L 581 0 
L 581 4863 
z
" transform="scale(0.015625)"/>
        <path id="DejaVuSans-6d" d="M 3328 2828 
Q 3544 3216 3844 3400 
Q 4144 3584 4550 3584 
Q 5097 3584 5394 3201 
Q 5691 2819 5691 2113 
L 5691 0 
L 5113 0 
L 5113 2094 
Q 5113 2597 4934 2840 
Q 4756 3084 4391 3084 
Q 3944 3084 3684 2787 
Q 3425 2491 3425 1978 
L 3425 0 
L 2847 0 
L 2847 2094 
Q 2847 2600 2669 2842 
Q 2491 3084 2119 3084 
Q 1678 3084 1418 2786 
Q 1159 2488 1159 1978 
L 1159 0 
L 581 0 
L 581 3500 
L 1159 3500 
L 1159 2956 
Q 1356 3278 1631 3431 
Q 1906 3584 2284 3584 
Q 2666 3584 2933 3390 
Q 3200 3197 3328 2828 
z
" transform="scale(0.015625)"/>
        <path id="DejaVuSans-65" d="M 3597 1894 
L 3597 1613 
L 953 1613 
Q 991 1019 1311 708 
Q 1631 397 2203 397 
Q 2534 397 2845 478 
Q 3156 559 3463 722 
L 3463 178 
Q 3153 47 2828 -22 
Q 2503 -91 2169 -91 
Q 1331 -91 842 396 
Q 353 884 353 1716 
Q 353 2575 817 3079 
Q 1281 3584 2069 3584 
Q 2775 3584 3186 3129 
Q 3597 2675 3597 1894 
z
M 3022 2063 
Q 3016 2534 2758 2815 
Q 2500 3097 2075 3097 
Q 1594 3097 1305 2825 
Q 1016 2553 972 2059 
L 3022 2063 
z
" transform="scale(0.015625)"/>
        <path id="DejaVuSans-72" d="M 2631 2963 
Q 2534 3019 2420 3045 
Q 2306 3072 2169 3072 
Q 1681 3072 1420 2755 
Q 1159 2438 1159 1844 
L 1159 0 
L 581 0 
L 581 3500 
L 1159 3500 
L 1159 2956 
Q 1341 3275 1631 3429 
Q 1922 3584 2338 3584 
Q 2397 3584 2469 3576 
Q 2541 3569 2628 3553 
L 2631 2963 
z
" transform="scale(0.015625)"/>
        <path id="DejaVuSans-5f" d="M 3263 -1063 
L 3263 -1509 
L -63 -1509 
L -63 -1063 
L 3263 -1063 
z
" transform="scale(0.015625)"/>
        <path id="DejaVuSans-75" d="M 544 1381 
L 544 3500 
L 1119 3500 
L 1119 1403 
Q 1119 906 1312 657 
Q 1506 409 1894 409 
Q 2359 409 2629 706 
Q 2900 1003 2900 1516 
L 2900 3500 
L 3475 3500 
L 3475 0 
L 2900 0 
L 2900 538 
Q 2691 219 2414 64 
Q 2138 -91 1772 -91 
Q 1169 -91 856 284 
Q 544 659 544 1381 
z
M 1991 3584 
L 1991 3584 
z
" transform="scale(0.015625)"/>
        <path id="DejaVuSans-70" d="M 1159 525 
L 1159 -1331 
L 581 -1331 
L 581 3500 
L 1159 3500 
L 1159 2969 
Q 1341 3281 1617 3432 
Q 1894 3584 2278 3584 
Q 2916 3584 3314 3078 
Q 3713 2572 3713 1747 
Q 3713 922 3314 415 
Q 2916 -91 2278 -91 
Q 1894 -91 1617 61 
Q 1341 213 1159 525 
z
M 3116 1747 
Q 3116 2381 2855 2742 
Q 2594 3103 2138 3103 
Q 1681 3103 1420 2742 
Q 1159 2381 1159 1747 
Q 1159 1113 1420 752 
Q 1681 391 2138 391 
Q 2594 391 2855 752 
Q 3116 1113 3116 1747 
z
" transform="scale(0.015625)"/>
        <path id="DejaVuSans-68" d="M 3513 2113 
L 3513 0 
L 2938 0 
L 2938 2094 
Q 2938 2591 2744 2837 
Q 2550 3084 2163 3084 
Q 1697 3084 1428 2787 
Q 1159 2491 1159 1978 
L 1159 0 
L 581 0 
L 581 4863 
L 1159 4863 
L 1159 2956 
Q 1366 3272 1645 3428 
Q 1925 3584 2291 3584 
Q 2894 3584 3203 3211 
Q 3513 2838 3513 2113 
z
" transform="scale(0.015625)"/>
        <path id="DejaVuSans-79" d="M 2059 -325 
Q 1816 -950 1584 -1140 
Q 1353 -1331 966 -1331 
L 506 -1331 
L 506 -850 
L 844 -850 
Q 1081 -850 1212 -737 
Q 1344 -625 1503 -206 
L 1606 56 
L 191 3500 
L 800 3500 
L 1894 763 
L 2988 3500 
L 3597 3500 
L 2059 -325 
z
" transform="scale(0.015625)"/>
        <path id="DejaVuSans-31" d="M 794 531 
L 1825 531 
L 1825 4091 
L 703 3866 
L 703 4441 
L 1819 4666 
L 2450 4666 
L 2450 531 
L 3481 531 
L 3481 0 
L 794 0 
L 794 531 
z
" transform="scale(0.015625)"/>
        <path id="DejaVuSans-30" d="M 2034 4250 
Q 1547 4250 1301 3770 
Q 1056 3291 1056 2328 
Q 1056 1369 1301 889 
Q 1547 409 2034 409 
Q 2525 409 2770 889 
Q 3016 1369 3016 2328 
Q 3016 3291 2770 3770 
Q 2525 4250 2034 4250 
z
M 2034 4750 
Q 2819 4750 3233 4129 
Q 3647 3509 3647 2328 
Q 3647 1150 3233 529 
Q 2819 -91 2034 -91 
Q 1250 -91 836 529 
Q 422 1150 422 2328 
Q 422 3509 836 4129 
Q 1250 4750 2034 4750 
z
" transform="scale(0.015625)"/>
        <path id="DejaVuSans-35" d="M 691 4666 
L 3169 4666 
L 3169 4134 
L 1269 4134 
L 1269 2991 
Q 1406 3038 1543 3061 
Q 1681 3084 1819 3084 
Q 2600 3084 3056 2656 
Q 3513 2228 3513 1497 
Q 3513 744 3044 326 
Q 2575 -91 1722 -91 
Q 1428 -91 1123 -41 
Q 819 9 494 109 
L 494 744 
Q 775 591 1075 516 
Q 1375 441 1709 441 
Q 2250 441 2565 725 
Q 2881 1009 2881 1497 
Q 2881 1984 2565 2268 
Q 2250 2553 1709 2553 
Q 1456 2553 1204 2497 
Q 953 2441 691 2322 
L 691 4666 
z
" transform="scale(0.015625)"/>
       </defs>
       <use xlink:href="#DejaVuSans-6b"/>
       <use xlink:href="#DejaVuSans-6d" transform="translate(57.910156 0)"/>
       <use xlink:href="#DejaVuSans-65" transform="translate(155.322266 0)"/>
       <use xlink:href="#DejaVuSans-72" transform="translate(216.845703 0)"/>
       <use xlink:href="#DejaVuSans-5f" transform="translate(257.958984 0)"/>
       <use xlink:href="#DejaVuSans-6d" transform="translate(307.958984 0)"/>
       <use xlink:href="#DejaVuSans-75" transform="translate(405.371094 0)"/>
       <use xlink:href="#DejaVuSans-72" transform="translate(468.75 0)"/>
       <use xlink:href="#DejaVuSans-70" transform="translate(509.863281 0)"/>
       <use xlink:href="#DejaVuSans-68" transform="translate(573.339844 0)"/>
       <use xlink:href="#DejaVuSans-79" transform="translate(636.71875 0)"/>
       <use xlink:href="#DejaVuSans-31" transform="translate(695.898438 0)"/>
       <use xlink:href="#DejaVuSans-30" transform="translate(759.521484 0)"/>
       <use xlink:href="#DejaVuSans-5f" transform="translate(823.144531 0)"/>
       <use xlink:href="#DejaVuSans-6b" transform="translate(873.144531 0)"/>
       <use xlink:href="#DejaVuSans-35" transform="translate(931.054688 0)"/>
      </g>
     </g>
    </g>
    <g id="xtick_2">
     <g id="line2d_2">
      <g>
       <use xlink:href="#m9853bb47d6" x="131.787644" y="272.387347" style="stroke: #000000; stroke-width: 0.8"/>
      </g>
     </g>
     <g id="text_2">
      <!-- kmer_li10_k5 -->
      <g transform="translate(88.138826 326.371279) rotate(-45) scale(0.09 -0.09)">
       <defs>
        <path id="DejaVuSans-6c" d="M 603 4863 
L 1178 4863 
L 1178 0 
L 603 0 
L 603 4863 
z
" transform="scale(0.015625)"/>
        <path id="DejaVuSans-69" d="M 603 3500 
L 1178 3500 
L 1178 0 
L 603 0 
L 603 3500 
z
M 603 4863 
L 1178 4863 
L 1178 4134 
L 603 4134 
L 603 4863 
z
" transform="scale(0.015625)"/>
       </defs>
       <use xlink:href="#DejaVuSans-6b"/>
       <use xlink:href="#DejaVuSans-6d" transform="translate(57.910156 0)"/>
       <use xlink:href="#DejaVuSans-65" transform="translate(155.322266 0)"/>
       <use xlink:href="#DejaVuSans-72" transform="translate(216.845703 0)"/>
       <use xlink:href="#DejaVuSans-5f" transform="translate(257.958984 0)"/>
       <use xlink:href="#DejaVuSans-6c" transform="translate(307.958984 0)"/>
       <use xlink:href="#DejaVuSans-69" transform="translate(335.742188 0)"/>
       <use xlink:href="#DejaVuSans-31" transform="translate(363.525391 0)"/>
       <use xlink:href="#DejaVuSans-30" transform="translate(427.148438 0)"/>
       <use xlink:href="#DejaVuSans-5f" transform="translate(490.771484 0)"/>
       <use xlink:href="#DejaVuSans-6b" transform="translate(540.771484 0)"/>
       <use xlink:href="#DejaVuSans-35" transform="translate(598.681641 0)"/>
      </g>
     </g>
    </g>
    <g id="xtick_3">
     <g id="line2d_3">
      <g>
       <use xlink:href="#m9853bb47d6" x="171.303723" y="272.387347" style="stroke: #000000; stroke-width: 0.8"/>
      </g>
     </g>
     <g id="text_3">
      <!-- kmer_murphy8_k5 -->
      <g transform="translate(110.55176 343.474424) rotate(-45) scale(0.09 -0.09)">
       <defs>
        <path id="DejaVuSans-38" d="M 2034 2216 
Q 1584 2216 1326 1975 
Q 1069 1734 1069 1313 
Q 1069 891 1326 650 
Q 1584 409 2034 409 
Q 2484 409 2743 651 
Q 3003 894 3003 1313 
Q 3003 1734 2745 1975 
Q 2488 2216 2034 2216 
z
M 1403 2484 
Q 997 2584 770 2862 
Q 544 3141 544 3541 
Q 544 4100 942 4425 
Q 1341 4750 2034 4750 
Q 2731 4750 3128 4425 
Q 3525 4100 3525 3541 
Q 3525 3141 3298 2862 
Q 3072 2584 2669 2484 
Q 3125 2378 3379 2068 
Q 3634 1759 3634 1313 
Q 3634 634 3220 271 
Q 2806 -91 2034 -91 
Q 1263 -91 848 271 
Q 434 634 434 1313 
Q 434 1759 690 2068 
Q 947 2378 1403 2484 
z
M 1172 3481 
Q 1172 3119 1398 2916 
Q 1625 2713 2034 2713 
Q 2441 2713 2670 2916 
Q 2900 3119 2900 3481 
Q 2900 3844 2670 4047 
Q 2441 4250 2034 4250 
Q 1625 4250 1398 4047 
Q 1172 3844 1172 3481 
z
" transform="scale(0.015625)"/>
       </defs>
       <use xlink:href="#DejaVuSans-6b"/>
       <use xlink:href="#DejaVuSans-6d" transform="translate(57.910156 0)"/>
       <use xlink:href="#DejaVuSans-65" transform="translate(155.322266 0)"/>
       <use xlink:href="#DejaVuSans-72" transform="translate(216.845703 0)"/>
       <use xlink:href="#DejaVuSans-5f" transform="translate(257.958984 0)"/>
       <use xlink:href="#DejaVuSans-6d" transform="translate(307.958984 0)"/>
       <use xlink:href="#DejaVuSans-75" transform="translate(405.371094 0)"/>
       <use xlink:href="#DejaVuSans-72" transform="translate(468.75 0)"/>
       <use xlink:href="#DejaVuSans-70" transform="translate(509.863281 0)"/>
       <use xlink:href="#DejaVuSans-68" transform="translate(573.339844 0)"/>
       <use xlink:href="#DejaVuSans-79" transform="translate(636.71875 0)"/>
       <use xlink:href="#DejaVuSans-38" transform="translate(695.898438 0)"/>
       <use xlink:href="#DejaVuSans-5f" transform="translate(759.521484 0)"/>
       <use xlink:href="#DejaVuSans-6b" transform="translate(809.521484 0)"/>
       <use xlink:href="#DejaVuSans-35" transform="translate(867.431641 0)"/>
      </g>
     </g>
    </g>
    <g id="xtick_4">
     <g id="line2d_4">
      <g>
       <use xlink:href="#m9853bb47d6" x="210.819802" y="272.387347" style="stroke: #000000; stroke-width: 0.8"/>
      </g>
     </g>
     <g id="text_4">
      <!-- kmer_aa20_k4 -->
      <g transform="translate(162.90713 330.635132) rotate(-45) scale(0.09 -0.09)">
       <defs>
        <path id="DejaVuSans-61" d="M 2194 1759 
Q 1497 1759 1228 1600 
Q 959 1441 959 1056 
Q 959 750 1161 570 
Q 1363 391 1709 391 
Q 2188 391 2477 730 
Q 2766 1069 2766 1631 
L 2766 1759 
L 2194 1759 
z
M 3341 1997 
L 3341 0 
L 2766 0 
L 2766 531 
Q 2569 213 2275 61 
Q 1981 -91 1556 -91 
Q 1019 -91 701 211 
Q 384 513 384 1019 
Q 384 1609 779 1909 
Q 1175 2209 1959 2209 
L 2766 2209 
L 2766 2266 
Q 2766 2663 2505 2880 
Q 2244 3097 1772 3097 
Q 1472 3097 1187 3025 
Q 903 2953 641 2809 
L 641 3341 
Q 956 3463 1253 3523 
Q 1550 3584 1831 3584 
Q 2591 3584 2966 3190 
Q 3341 2797 3341 1997 
z
" transform="scale(0.015625)"/>
        <path id="DejaVuSans-32" d="M 1228 531 
L 3431 531 
L 3431 0 
L 469 0 
L 469 531 
Q 828 903 1448 1529 
Q 2069 2156 2228 2338 
Q 2531 2678 2651 2914 
Q 2772 3150 2772 3378 
Q 2772 3750 2511 3984 
Q 2250 4219 1831 4219 
Q 1534 4219 1204 4116 
Q 875 4013 500 3803 
L 500 4441 
Q 881 4594 1212 4672 
Q 1544 4750 1819 4750 
Q 2544 4750 2975 4387 
Q 3406 4025 3406 3419 
Q 3406 3131 3298 2873 
Q 3191 2616 2906 2266 
Q 2828 2175 2409 1742 
Q 1991 1309 1228 531 
z
" transform="scale(0.015625)"/>
        <path id="DejaVuSans-34" d="M 2419 4116 
L 825 1625 
L 2419 1625 
L 2419 4116 
z
M 2253 4666 
L 3047 4666 
L 3047 1625 
L 3713 1625 
L 3713 1100 
L 3047 1100 
L 3047 0 
L 2419 0 
L 2419 1100 
L 313 1100 
L 313 1709 
L 2253 4666 
z
" transform="scale(0.015625)"/>
       </defs>
       <use xlink:href="#DejaVuSans-6b"/>
       <use xlink:href="#DejaVuSans-6d" transform="translate(57.910156 0)"/>
       <use xlink:href="#DejaVuSans-65" transform="translate(155.322266 0)"/>
       <use xlink:href="#DejaVuSans-72" transform="translate(216.845703 0)"/>
       <use xlink:href="#DejaVuSans-5f" transform="translate(257.958984 0)"/>
       <use xlink:href="#DejaVuSans-61" transform="translate(307.958984 0)"/>
       <use xlink:href="#DejaVuSans-61" transform="translate(369.238281 0)"/>
       <use xlink:href="#DejaVuSans-32" transform="translate(430.517578 0)"/>
       <use xlink:href="#DejaVuSans-30" transform="translate(494.140625 0)"/>
       <use xlink:href="#DejaVuSans-5f" transform="translate(557.763672 0)"/>
       <use xlink:href="#DejaVuSans-6b" transform="translate(607.763672 0)"/>
       <use xlink:href="#DejaVuSans-34" transform="translate(665.673828 0)"/>
      </g>
     </g>
    </g>
    <g id="xtick_5">
     <g id="line2d_5">
      <g>
       <use xlink:href="#m9853bb47d6" x="250.335881" y="272.387347" style="stroke: #000000; stroke-width: 0.8"/>
      </g>
     </g>
     <g id="text_5">
      <!-- kmer_aa20_k3 -->
      <g transform="translate(202.42321 330.635132) rotate(-45) scale(0.09 -0.09)">
       <defs>
        <path id="DejaVuSans-33" d="M 2597 2516 
Q 3050 2419 3304 2112 
Q 3559 1806 3559 1356 
Q 3559 666 3084 287 
Q 2609 -91 1734 -91 
Q 1441 -91 1130 -33 
Q 819 25 488 141 
L 488 750 
Q 750 597 1062 519 
Q 1375 441 1716 441 
Q 2309 441 2620 675 
Q 2931 909 2931 1356 
Q 2931 1769 2642 2001 
Q 2353 2234 1838 2234 
L 1294 2234 
L 1294 2753 
L 1863 2753 
Q 2328 2753 2575 2939 
Q 2822 3125 2822 3475 
Q 2822 3834 2567 4026 
Q 2313 4219 1838 4219 
Q 1578 4219 1281 4162 
Q 984 4106 628 3988 
L 628 4550 
Q 988 4650 1302 4700 
Q 1616 4750 1894 4750 
Q 2613 4750 3031 4423 
Q 3450 4097 3450 3541 
Q 3450 3153 3228 2886 
Q 3006 2619 2597 2516 
z
" transform="scale(0.015625)"/>
       </defs>
       <use xlink:href="#DejaVuSans-6b"/>
       <use xlink:href="#DejaVuSans-6d" transform="translate(57.910156 0)"/>
       <use xlink:href="#DejaVuSans-65" transform="translate(155.322266 0)"/>
       <use xlink:href="#DejaVuSans-72" transform="translate(216.845703 0)"/>
       <use xlink:href="#DejaVuSans-5f" transform="translate(257.958984 0)"/>
       <use xlink:href="#DejaVuSans-61" transform="translate(307.958984 0)"/>
       <use xlink:href="#DejaVuSans-61" transform="translate(369.238281 0)"/>
       <use xlink:href="#DejaVuSans-32" transform="translate(430.517578 0)"/>
       <use xlink:href="#DejaVuSans-30" transform="translate(494.140625 0)"/>
       <use xlink:href="#DejaVuSans-5f" transform="translate(557.763672 0)"/>
       <use xlink:href="#DejaVuSans-6b" transform="translate(607.763672 0)"/>
       <use xlink:href="#DejaVuSans-33" transform="translate(665.673828 0)"/>
      </g>
     </g>
    </g>
    <g id="xtick_6">
     <g id="line2d_6">
      <g>
       <use xlink:href="#m9853bb47d6" x="289.85196" y="272.387347" style="stroke: #000000; stroke-width: 0.8"/>
      </g>
     </g>
     <g id="text_6">
      <!-- prott5_mean -->
      <g transform="translate(247.675803 324.721621) rotate(-45) scale(0.09 -0.09)">
       <defs>
        <path id="DejaVuSans-6f" d="M 1959 3097 
Q 1497 3097 1228 2736 
Q 959 2375 959 1747 
Q 959 1119 1226 758 
Q 1494 397 1959 397 
Q 2419 397 2687 759 
Q 2956 1122 2956 1747 
Q 2956 2369 2687 2733 
Q 2419 3097 1959 3097 
z
M 1959 3584 
Q 2709 3584 3137 3096 
Q 3566 2609 3566 1747 
Q 3566 888 3137 398 
Q 2709 -91 1959 -91 
Q 1206 -91 779 398 
Q 353 888 353 1747 
Q 353 2609 779 3096 
Q 1206 3584 1959 3584 
z
" transform="scale(0.015625)"/>
        <path id="DejaVuSans-74" d="M 1172 4494 
L 1172 3500 
L 2356 3500 
L 2356 3053 
L 1172 3053 
L 1172 1153 
Q 1172 725 1289 603 
Q 1406 481 1766 481 
L 2356 481 
L 2356 0 
L 1766 0 
Q 1100 0 847 248 
Q 594 497 594 1153 
L 594 3053 
L 172 3053 
L 172 3500 
L 594 3500 
L 594 4494 
L 1172 4494 
z
" transform="scale(0.015625)"/>
        <path id="DejaVuSans-6e" d="M 3513 2113 
L 3513 0 
L 2938 0 
L 2938 2094 
Q 2938 2591 2744 2837 
Q 2550 3084 2163 3084 
Q 1697 3084 1428 2787 
Q 1159 2491 1159 1978 
L 1159 0 
L 581 0 
L 581 3500 
L 1159 3500 
L 1159 2956 
Q 1366 3272 1645 3428 
Q 1925 3584 2291 3584 
Q 2894 3584 3203 3211 
Q 3513 2838 3513 2113 
z
" transform="scale(0.015625)"/>
       </defs>
       <use xlink:href="#DejaVuSans-70"/>
       <use xlink:href="#DejaVuSans-72" transform="translate(63.476562 0)"/>
       <use xlink:href="#DejaVuSans-6f" transform="translate(102.339844 0)"/>
       <use xlink:href="#DejaVuSans-74" transform="translate(163.521484 0)"/>
       <use xlink:href="#DejaVuSans-74" transform="translate(202.730469 0)"/>
       <use xlink:href="#DejaVuSans-35" transform="translate(241.939453 0)"/>
       <use xlink:href="#DejaVuSans-5f" transform="translate(305.5625 0)"/>
       <use xlink:href="#DejaVuSans-6d" transform="translate(355.5625 0)"/>
       <use xlink:href="#DejaVuSans-65" transform="translate(452.974609 0)"/>
       <use xlink:href="#DejaVuSans-61" transform="translate(514.498047 0)"/>
       <use xlink:href="#DejaVuSans-6e" transform="translate(575.777344 0)"/>
      </g>
     </g>
    </g>
    <g id="xtick_7">
     <g id="line2d_7">
      <g>
       <use xlink:href="#m9853bb47d6" x="329.36804" y="272.387347" style="stroke: #000000; stroke-width: 0.8"/>
      </g>
     </g>
     <g id="text_7">
      <!-- esm2_150m_mean -->
      <g transform="translate(267.630657 344.34748) rotate(-45) scale(0.09 -0.09)">
       <defs>
        <path id="DejaVuSans-73" d="M 2834 3397 
L 2834 2853 
Q 2591 2978 2328 3040 
Q 2066 3103 1784 3103 
Q 1356 3103 1142 2972 
Q 928 2841 928 2578 
Q 928 2378 1081 2264 
Q 1234 2150 1697 2047 
L 1894 2003 
Q 2506 1872 2764 1633 
Q 3022 1394 3022 966 
Q 3022 478 2636 193 
Q 2250 -91 1575 -91 
Q 1294 -91 989 -36 
Q 684 19 347 128 
L 347 722 
Q 666 556 975 473 
Q 1284 391 1588 391 
Q 1994 391 2212 530 
Q 2431 669 2431 922 
Q 2431 1156 2273 1281 
Q 2116 1406 1581 1522 
L 1381 1569 
Q 847 1681 609 1914 
Q 372 2147 372 2553 
Q 372 3047 722 3315 
Q 1072 3584 1716 3584 
Q 2034 3584 2315 3537 
Q 2597 3491 2834 3397 
z
" transform="scale(0.015625)"/>
       </defs>
       <use xlink:href="#DejaVuSans-65"/>
       <use xlink:href="#DejaVuSans-73" transform="translate(61.523438 0)"/>
       <use xlink:href="#DejaVuSans-6d" transform="translate(113.623047 0)"/>
       <use xlink:href="#DejaVuSans-32" transform="translate(211.035156 0)"/>
       <use xlink:href="#DejaVuSans-5f" transform="translate(274.658203 0)"/>
       <use xlink:href="#DejaVuSans-31" transform="translate(324.658203 0)"/>
       <use xlink:href="#DejaVuSans-35" transform="translate(388.28125 0)"/>
       <use xlink:href="#DejaVuSans-30" transform="translate(451.904297 0)"/>
       <use xlink:href="#DejaVuSans-6d" transform="translate(515.527344 0)"/>
       <use xlink:href="#DejaVuSans-5f" transform="translate(612.939453 0)"/>
       <use xlink:href="#DejaVuSans-6d" transform="translate(662.939453 0)"/>
       <use xlink:href="#DejaVuSans-65" transform="translate(760.351562 0)"/>
       <use xlink:href="#DejaVuSans-61" transform="translate(821.875 0)"/>
       <use xlink:href="#DejaVuSans-6e" transform="translate(883.154297 0)"/>
      </g>
     </g>
    </g>
    <g id="xtick_8">
     <g id="line2d_8">
      <g>
       <use xlink:href="#m9853bb47d6" x="368.884119" y="272.387347" style="stroke: #000000; stroke-width: 0.8"/>
      </g>
     </g>
     <g id="text_8">
      <!-- esm2_650m_seg4 -->
      <g transform="translate(309.87429 341.619926) rotate(-45) scale(0.09 -0.09)">
       <defs>
        <path id="DejaVuSans-36" d="M 2113 2584 
Q 1688 2584 1439 2293 
Q 1191 2003 1191 1497 
Q 1191 994 1439 701 
Q 1688 409 2113 409 
Q 2538 409 2786 701 
Q 3034 994 3034 1497 
Q 3034 2003 2786 2293 
Q 2538 2584 2113 2584 
z
M 3366 4563 
L 3366 3988 
Q 3128 4100 2886 4159 
Q 2644 4219 2406 4219 
Q 1781 4219 1451 3797 
Q 1122 3375 1075 2522 
Q 1259 2794 1537 2939 
Q 1816 3084 2150 3084 
Q 2853 3084 3261 2657 
Q 3669 2231 3669 1497 
Q 3669 778 3244 343 
Q 2819 -91 2113 -91 
Q 1303 -91 875 529 
Q 447 1150 447 2328 
Q 447 3434 972 4092 
Q 1497 4750 2381 4750 
Q 2619 4750 2861 4703 
Q 3103 4656 3366 4563 
z
" transform="scale(0.015625)"/>
        <path id="DejaVuSans-67" d="M 2906 1791 
Q 2906 2416 2648 2759 
Q 2391 3103 1925 3103 
Q 1463 3103 1205 2759 
Q 947 2416 947 1791 
Q 947 1169 1205 825 
Q 1463 481 1925 481 
Q 2391 481 2648 825 
Q 2906 1169 2906 1791 
z
M 3481 434 
Q 3481 -459 3084 -895 
Q 2688 -1331 1869 -1331 
Q 1566 -1331 1297 -1286 
Q 1028 -1241 775 -1147 
L 775 -588 
Q 1028 -725 1275 -790 
Q 1522 -856 1778 -856 
Q 2344 -856 2625 -561 
Q 2906 -266 2906 331 
L 2906 616 
Q 2728 306 2450 153 
Q 2172 0 1784 0 
Q 1141 0 747 490 
Q 353 981 353 1791 
Q 353 2603 747 3093 
Q 1141 3584 1784 3584 
Q 2172 3584 2450 3431 
Q 2728 3278 2906 2969 
L 2906 3500 
L 3481 3500 
L 3481 434 
z
" transform="scale(0.015625)"/>
       </defs>
       <use xlink:href="#DejaVuSans-65"/>
       <use xlink:href="#DejaVuSans-73" transform="translate(61.523438 0)"/>
       <use xlink:href="#DejaVuSans-6d" transform="translate(113.623047 0)"/>
       <use xlink:href="#DejaVuSans-32" transform="translate(211.035156 0)"/>
       <use xlink:href="#DejaVuSans-5f" transform="translate(274.658203 0)"/>
       <use xlink:href="#DejaVuSans-36" transform="translate(324.658203 0)"/>
       <use xlink:href="#DejaVuSans-35" transform="translate(388.28125 0)"/>
       <use xlink:href="#DejaVuSans-30" transform="translate(451.904297 0)"/>
       <use xlink:href="#DejaVuSans-6d" transform="translate(515.527344 0)"/>
       <use xlink:href="#DejaVuSans-5f" transform="translate(612.939453 0)"/>
       <use xlink:href="#DejaVuSans-73" transform="translate(662.939453 0)"/>
       <use xlink:href="#DejaVuSans-65" transform="translate(715.039062 0)"/>
       <use xlink:href="#DejaVuSans-67" transform="translate(776.5625 0)"/>
       <use xlink:href="#DejaVuSans-34" transform="translate(840.039062 0)"/>
      </g>
     </g>
    </g>
    <g id="xtick_9">
     <g id="line2d_9">
      <g>
       <use xlink:href="#m9853bb47d6" x="408.400198" y="272.387347" style="stroke: #000000; stroke-width: 0.8"/>
      </g>
     </g>
     <g id="text_9">
      <!-- esm2_650m_seg16 -->
      <g transform="translate(345.341299 345.668996) rotate(-45) scale(0.09 -0.09)">
       <use xlink:href="#DejaVuSans-65"/>
       <use xlink:href="#DejaVuSans-73" transform="translate(61.523438 0)"/>
       <use xlink:href="#DejaVuSans-6d" transform="translate(113.623047 0)"/>
       <use xlink:href="#DejaVuSans-32" transform="translate(211.035156 0)"/>
       <use xlink:href="#DejaVuSans-5f" transform="translate(274.658203 0)"/>
       <use xlink:href="#DejaVuSans-36" transform="translate(324.658203 0)"/>
       <use xlink:href="#DejaVuSans-35" transform="translate(388.28125 0)"/>
       <use xlink:href="#DejaVuSans-30" transform="translate(451.904297 0)"/>
       <use xlink:href="#DejaVuSans-6d" transform="translate(515.527344 0)"/>
       <use xlink:href="#DejaVuSans-5f" transform="translate(612.939453 0)"/>
       <use xlink:href="#DejaVuSans-73" transform="translate(662.939453 0)"/>
       <use xlink:href="#DejaVuSans-65" transform="translate(715.039062 0)"/>
       <use xlink:href="#DejaVuSans-67" transform="translate(776.5625 0)"/>
       <use xlink:href="#DejaVuSans-31" transform="translate(840.039062 0)"/>
       <use xlink:href="#DejaVuSans-36" transform="translate(903.662109 0)"/>
      </g>
     </g>
    </g>
    <g id="xtick_10">
     <g id="line2d_10">
      <g>
       <use xlink:href="#m9853bb47d6" x="447.916277" y="272.387347" style="stroke: #000000; stroke-width: 0.8"/>
      </g>
     </g>
     <g id="text_10">
      <!-- esm2_650m_seg8 -->
      <g transform="translate(388.906448 341.619926) rotate(-45) scale(0.09 -0.09)">
       <use xlink:href="#DejaVuSans-65"/>
       <use xlink:href="#DejaVuSans-73" transform="translate(61.523438 0)"/>
       <use xlink:href="#DejaVuSans-6d" transform="translate(113.623047 0)"/>
       <use xlink:href="#DejaVuSans-32" transform="translate(211.035156 0)"/>
       <use xlink:href="#DejaVuSans-5f" transform="translate(274.658203 0)"/>
       <use xlink:href="#DejaVuSans-36" transform="translate(324.658203 0)"/>
       <use xlink:href="#DejaVuSans-35" transform="translate(388.28125 0)"/>
       <use xlink:href="#DejaVuSans-30" transform="translate(451.904297 0)"/>
       <use xlink:href="#DejaVuSans-6d" transform="translate(515.527344 0)"/>
       <use xlink:href="#DejaVuSans-5f" transform="translate(612.939453 0)"/>
       <use xlink:href="#DejaVuSans-73" transform="translate(662.939453 0)"/>
       <use xlink:href="#DejaVuSans-65" transform="translate(715.039062 0)"/>
       <use xlink:href="#DejaVuSans-67" transform="translate(776.5625 0)"/>
       <use xlink:href="#DejaVuSans-38" transform="translate(840.039062 0)"/>
      </g>
     </g>
    </g>
    <g id="xtick_11">
     <g id="line2d_11">
      <g>
       <use xlink:href="#m9853bb47d6" x="487.432356" y="272.387347" style="stroke: #000000; stroke-width: 0.8"/>
      </g>
     </g>
     <g id="text_11">
      <!-- esm2_650m_mean -->
      <g transform="translate(425.694974 344.34748) rotate(-45) scale(0.09 -0.09)">
       <use xlink:href="#DejaVuSans-65"/>
       <use xlink:href="#DejaVuSans-73" transform="translate(61.523438 0)"/>
       <use xlink:href="#DejaVuSans-6d" transform="translate(113.623047 0)"/>
       <use xlink:href="#DejaVuSans-32" transform="translate(211.035156 0)"/>
       <use xlink:href="#DejaVuSans-5f" transform="translate(274.658203 0)"/>
       <use xlink:href="#DejaVuSans-36" transform="translate(324.658203 0)"/>
       <use xlink:href="#DejaVuSans-35" transform="translate(388.28125 0)"/>
       <use xlink:href="#DejaVuSans-30" transform="translate(451.904297 0)"/>
       <use xlink:href="#DejaVuSans-6d" transform="translate(515.527344 0)"/>
       <use xlink:href="#DejaVuSans-5f" transform="translate(612.939453 0)"/>
       <use xlink:href="#DejaVuSans-6d" transform="translate(662.939453 0)"/>
       <use xlink:href="#DejaVuSans-65" transform="translate(760.351562 0)"/>
       <use xlink:href="#DejaVuSans-61" transform="translate(821.875 0)"/>
       <use xlink:href="#DejaVuSans-6e" transform="translate(883.154297 0)"/>
      </g>
     </g>
    </g>
    <g id="xtick_12">
     <g id="line2d_12">
      <g>
       <use xlink:href="#m9853bb47d6" x="526.948435" y="272.387347" style="stroke: #000000; stroke-width: 0.8"/>
      </g>
     </g>
     <g id="text_12">
      <!-- esm2_3b_mean -->
      <g transform="translate(475.467968 334.202928) rotate(-45) scale(0.09 -0.09)">
       <defs>
        <path id="DejaVuSans-62" d="M 3116 1747 
Q 3116 2381 2855 2742 
Q 2594 3103 2138 3103 
Q 1681 3103 1420 2742 
Q 1159 2381 1159 1747 
Q 1159 1113 1420 752 
Q 1681 391 2138 391 
Q 2594 391 2855 752 
Q 3116 1113 3116 1747 
z
M 1159 2969 
Q 1341 3281 1617 3432 
Q 1894 3584 2278 3584 
Q 2916 3584 3314 3078 
Q 3713 2572 3713 1747 
Q 3713 922 3314 415 
Q 2916 -91 2278 -91 
Q 1894 -91 1617 61 
Q 1341 213 1159 525 
L 1159 0 
L 581 0 
L 581 4863 
L 1159 4863 
L 1159 2969 
z
" transform="scale(0.015625)"/>
       </defs>
       <use xlink:href="#DejaVuSans-65"/>
       <use xlink:href="#DejaVuSans-73" transform="translate(61.523438 0)"/>
       <use xlink:href="#DejaVuSans-6d" transform="translate(113.623047 0)"/>
       <use xlink:href="#DejaVuSans-32" transform="translate(211.035156 0)"/>
       <use xlink:href="#DejaVuSans-5f" transform="translate(274.658203 0)"/>
       <use xlink:href="#DejaVuSans-33" transform="translate(324.658203 0)"/>
       <use xlink:href="#DejaVuSans-62" transform="translate(388.28125 0)"/>
       <use xlink:href="#DejaVuSans-5f" transform="translate(451.757812 0)"/>
       <use xlink:href="#DejaVuSans-6d" transform="translate(501.757812 0)"/>
       <use xlink:href="#DejaVuSans-65" transform="translate(599.169922 0)"/>
       <use xlink:href="#DejaVuSans-61" transform="translate(660.693359 0)"/>
       <use xlink:href="#DejaVuSans-6e" transform="translate(721.972656 0)"/>
      </g>
     </g>
    </g>
   </g>
   <g id="matplotlib.axis_2">
    <g id="ytick_1">
     <g id="line2d_13">
      <path d="M 54.02 261.625824 
L 565.2 261.625824 
" clip-path="url(#p84f02305bd)" style="fill: none; stroke: #b0b0b0; stroke-opacity: 0.3; stroke-width: 0.8; stroke-linecap: square"/>
     </g>
     <g id="line2d_14">
      <defs>
       <path id="mb964c5c4a2" d="M 0 0 
L -3.5 0 
" style="stroke: #000000; stroke-width: 0.8"/>
      </defs>
      <g>
       <use xlink:href="#mb964c5c4a2" x="54.02" y="261.625824" style="stroke: #000000; stroke-width: 0.8"/>
      </g>
     </g>
     <g id="text_13">
      <!-- 0.00 -->
      <g transform="translate(24.754375 265.425043) scale(0.1 -0.1)">
       <defs>
        <path id="DejaVuSans-2e" d="M 684 794 
L 1344 794 
L 1344 0 
L 684 0 
L 684 794 
z
" transform="scale(0.015625)"/>
       </defs>
       <use xlink:href="#DejaVuSans-30"/>
       <use xlink:href="#DejaVuSans-2e" transform="translate(63.623047 0)"/>
       <use xlink:href="#DejaVuSans-30" transform="translate(95.410156 0)"/>
       <use xlink:href="#DejaVuSans-30" transform="translate(159.033203 0)"/>
      </g>
     </g>
    </g>
    <g id="ytick_2">
     <g id="line2d_15">
      <path d="M 54.02 233.343239 
L 565.2 233.343239 
" clip-path="url(#p84f02305bd)" style="fill: none; stroke: #b0b0b0; stroke-opacity: 0.3; stroke-width: 0.8; stroke-linecap: square"/>
     </g>
     <g id="line2d_16">
      <g>
       <use xlink:href="#mb964c5c4a2" x="54.02" y="233.343239" style="stroke: #000000; stroke-width: 0.8"/>
      </g>
     </g>
     <g id="text_14">
      <!-- 0.01 -->
      <g transform="translate(24.754375 237.142458) scale(0.1 -0.1)">
       <use xlink:href="#DejaVuSans-30"/>
       <use xlink:href="#DejaVuSans-2e" transform="translate(63.623047 0)"/>
       <use xlink:href="#DejaVuSans-30" transform="translate(95.410156 0)"/>
       <use xlink:href="#DejaVuSans-31" transform="translate(159.033203 0)"/>
      </g>
     </g>
    </g>
    <g id="ytick_3">
     <g id="line2d_17">
      <path d="M 54.02 205.060655 
L 565.2 205.060655 
" clip-path="url(#p84f02305bd)" style="fill: none; stroke: #b0b0b0; stroke-opacity: 0.3; stroke-width: 0.8; stroke-linecap: square"/>
     </g>
     <g id="line2d_18">
      <g>
       <use xlink:href="#mb964c5c4a2" x="54.02" y="205.060655" style="stroke: #000000; stroke-width: 0.8"/>
      </g>
     </g>
     <g id="text_15">
      <!-- 0.02 -->
      <g transform="translate(24.754375 208.859873) scale(0.1 -0.1)">
       <use xlink:href="#DejaVuSans-30"/>
       <use xlink:href="#DejaVuSans-2e" transform="translate(63.623047 0)"/>
       <use xlink:href="#DejaVuSans-30" transform="translate(95.410156 0)"/>
       <use xlink:href="#DejaVuSans-32" transform="translate(159.033203 0)"/>
      </g>
     </g>
    </g>
    <g id="ytick_4">
     <g id="line2d_19">
      <path d="M 54.02 176.77807 
L 565.2 176.77807 
" clip-path="url(#p84f02305bd)" style="fill: none; stroke: #b0b0b0; stroke-opacity: 0.3; stroke-width: 0.8; stroke-linecap: square"/>
     </g>
     <g id="line2d_20">
      <g>
       <use xlink:href="#mb964c5c4a2" x="54.02" y="176.77807" style="stroke: #000000; stroke-width: 0.8"/>
      </g>
     </g>
     <g id="text_16">
      <!-- 0.03 -->
      <g transform="translate(24.754375 180.577289) scale(0.1 -0.1)">
       <use xlink:href="#DejaVuSans-30"/>
       <use xlink:href="#DejaVuSans-2e" transform="translate(63.623047 0)"/>
       <use xlink:href="#DejaVuSans-30" transform="translate(95.410156 0)"/>
       <use xlink:href="#DejaVuSans-33" transform="translate(159.033203 0)"/>
      </g>
     </g>
    </g>
    <g id="ytick_5">
     <g id="line2d_21">
      <path d="M 54.02 148.495485 
L 565.2 148.495485 
" clip-path="url(#p84f02305bd)" style="fill: none; stroke: #b0b0b0; stroke-opacity: 0.3; stroke-width: 0.8; stroke-linecap: square"/>
     </g>
     <g id="line2d_22">
      <g>
       <use xlink:href="#mb964c5c4a2" x="54.02" y="148.495485" style="stroke: #000000; stroke-width: 0.8"/>
      </g>
     </g>
     <g id="text_17">
      <!-- 0.04 -->
      <g transform="translate(24.754375 152.294704) scale(0.1 -0.1)">
       <use xlink:href="#DejaVuSans-30"/>
       <use xlink:href="#DejaVuSans-2e" transform="translate(63.623047 0)"/>
       <use xlink:href="#DejaVuSans-30" transform="translate(95.410156 0)"/>
       <use xlink:href="#DejaVuSans-34" transform="translate(159.033203 0)"/>
      </g>
     </g>
    </g>
    <g id="ytick_6">
     <g id="line2d_23">
      <path d="M 54.02 120.212901 
L 565.2 120.212901 
" clip-path="url(#p84f02305bd)" style="fill: none; stroke: #b0b0b0; stroke-opacity: 0.3; stroke-width: 0.8; stroke-linecap: square"/>
     </g>
     <g id="line2d_24">
      <g>
       <use xlink:href="#mb964c5c4a2" x="54.02" y="120.212901" style="stroke: #000000; stroke-width: 0.8"/>
      </g>
     </g>
     <g id="text_18">
      <!-- 0.05 -->
      <g transform="translate(24.754375 124.01212) scale(0.1 -0.1)">
       <use xlink:href="#DejaVuSans-30"/>
       <use xlink:href="#DejaVuSans-2e" transform="translate(63.623047 0)"/>
       <use xlink:href="#DejaVuSans-30" transform="translate(95.410156 0)"/>
       <use xlink:href="#DejaVuSans-35" transform="translate(159.033203 0)"/>
      </g>
     </g>
    </g>
    <g id="ytick_7">
     <g id="line2d_25">
      <path d="M 54.02 91.930316 
L 565.2 91.930316 
" clip-path="url(#p84f02305bd)" style="fill: none; stroke: #b0b0b0; stroke-opacity: 0.3; stroke-width: 0.8; stroke-linecap: square"/>
     </g>
     <g id="line2d_26">
      <g>
       <use xlink:href="#mb964c5c4a2" x="54.02" y="91.930316" style="stroke: #000000; stroke-width: 0.8"/>
      </g>
     </g>
     <g id="text_19">
      <!-- 0.06 -->
      <g transform="translate(24.754375 95.729535) scale(0.1 -0.1)">
       <use xlink:href="#DejaVuSans-30"/>
       <use xlink:href="#DejaVuSans-2e" transform="translate(63.623047 0)"/>
       <use xlink:href="#DejaVuSans-30" transform="translate(95.410156 0)"/>
       <use xlink:href="#DejaVuSans-36" transform="translate(159.033203 0)"/>
      </g>
     </g>
    </g>
    <g id="ytick_8">
     <g id="line2d_27">
      <path d="M 54.02 63.647731 
L 565.2 63.647731 
" clip-path="url(#p84f02305bd)" style="fill: none; stroke: #b0b0b0; stroke-opacity: 0.3; stroke-width: 0.8; stroke-linecap: square"/>
     </g>
     <g id="line2d_28">
      <g>
       <use xlink:href="#mb964c5c4a2" x="54.02" y="63.647731" style="stroke: #000000; stroke-width: 0.8"/>
      </g>
     </g>
     <g id="text_20">
      <!-- 0.07 -->
      <g transform="translate(24.754375 67.44695) scale(0.1 -0.1)">
       <defs>
        <path id="DejaVuSans-37" d="M 525 4666 
L 3525 4666 
L 3525 4397 
L 1831 0 
L 1172 0 
L 2766 4134 
L 525 4134 
L 525 4666 
z
" transform="scale(0.015625)"/>
       </defs>
       <use xlink:href="#DejaVuSans-30"/>
       <use xlink:href="#DejaVuSans-2e" transform="translate(63.623047 0)"/>
       <use xlink:href="#DejaVuSans-30" transform="translate(95.410156 0)"/>
       <use xlink:href="#DejaVuSans-37" transform="translate(159.033203 0)"/>
      </g>
     </g>
    </g>
    <g id="text_21">
     <!-- Class-separation gap (within − between cosine) -->
     <g transform="translate(18.674688 276.979486) rotate(-90) scale(0.1 -0.1)">
      <defs>
       <path id="DejaVuSans-43" d="M 4122 4306 
L 4122 3641 
Q 3803 3938 3442 4084 
Q 3081 4231 2675 4231 
Q 1875 4231 1450 3742 
Q 1025 3253 1025 2328 
Q 1025 1406 1450 917 
Q 1875 428 2675 428 
Q 3081 428 3442 575 
Q 3803 722 4122 1019 
L 4122 359 
Q 3791 134 3420 21 
Q 3050 -91 2638 -91 
Q 1578 -91 968 557 
Q 359 1206 359 2328 
Q 359 3453 968 4101 
Q 1578 4750 2638 4750 
Q 3056 4750 3426 4639 
Q 3797 4528 4122 4306 
z
" transform="scale(0.015625)"/>
       <path id="DejaVuSans-2d" d="M 313 2009 
L 1997 2009 
L 1997 1497 
L 313 1497 
L 313 2009 
z
" transform="scale(0.015625)"/>
       <path id="DejaVuSans-20" transform="scale(0.015625)"/>
       <path id="DejaVuSans-28" d="M 1984 4856 
Q 1566 4138 1362 3434 
Q 1159 2731 1159 2009 
Q 1159 1288 1364 580 
Q 1569 -128 1984 -844 
L 1484 -844 
Q 1016 -109 783 600 
Q 550 1309 550 2009 
Q 550 2706 781 3412 
Q 1013 4119 1484 4856 
L 1984 4856 
z
" transform="scale(0.015625)"/>
       <path id="DejaVuSans-77" d="M 269 3500 
L 844 3500 
L 1563 769 
L 2278 3500 
L 2956 3500 
L 3675 769 
L 4391 3500 
L 4966 3500 
L 4050 0 
L 3372 0 
L 2619 2869 
L 1863 0 
L 1184 0 
L 269 3500 
z
" transform="scale(0.015625)"/>
       <path id="DejaVuSans-2212" d="M 678 2272 
L 4684 2272 
L 4684 1741 
L 678 1741 
L 678 2272 
z
" transform="scale(0.015625)"/>
       <path id="DejaVuSans-63" d="M 3122 3366 
L 3122 2828 
Q 2878 2963 2633 3030 
Q 2388 3097 2138 3097 
Q 1578 3097 1268 2742 
Q 959 2388 959 1747 
Q 959 1106 1268 751 
Q 1578 397 2138 397 
Q 2388 397 2633 464 
Q 2878 531 3122 666 
L 3122 134 
Q 2881 22 2623 -34 
Q 2366 -91 2075 -91 
Q 1284 -91 818 406 
Q 353 903 353 1747 
Q 353 2603 823 3093 
Q 1294 3584 2113 3584 
Q 2378 3584 2631 3529 
Q 2884 3475 3122 3366 
z
" transform="scale(0.015625)"/>
       <path id="DejaVuSans-29" d="M 513 4856 
L 1013 4856 
Q 1481 4119 1714 3412 
Q 1947 2706 1947 2009 
Q 1947 1309 1714 600 
Q 1481 -109 1013 -844 
L 513 -844 
Q 928 -128 1133 580 
Q 1338 1288 1338 2009 
Q 1338 2731 1133 3434 
Q 928 4138 513 4856 
z
" transform="scale(0.015625)"/>
      </defs>
      <use xlink:href="#DejaVuSans-43"/>
      <use xlink:href="#DejaVuSans-6c" transform="translate(69.824219 0)"/>
      <use xlink:href="#DejaVuSans-61" transform="translate(97.607422 0)"/>
      <use xlink:href="#DejaVuSans-73" transform="translate(158.886719 0)"/>
      <use xlink:href="#DejaVuSans-73" transform="translate(210.986328 0)"/>
      <use xlink:href="#DejaVuSans-2d" transform="translate(263.085938 0)"/>
      <use xlink:href="#DejaVuSans-73" transform="translate(299.169922 0)"/>
      <use xlink:href="#DejaVuSans-65" transform="translate(351.269531 0)"/>
      <use xlink:href="#DejaVuSans-70" transform="translate(412.792969 0)"/>
      <use xlink:href="#DejaVuSans-61" transform="translate(476.269531 0)"/>
      <use xlink:href="#DejaVuSans-72" transform="translate(537.548828 0)"/>
      <use xlink:href="#DejaVuSans-61" transform="translate(578.662109 0)"/>
      <use xlink:href="#DejaVuSans-74" transform="translate(639.941406 0)"/>
      <use xlink:href="#DejaVuSans-69" transform="translate(679.150391 0)"/>
      <use xlink:href="#DejaVuSans-6f" transform="translate(706.933594 0)"/>
      <use xlink:href="#DejaVuSans-6e" transform="translate(768.115234 0)"/>
      <use xlink:href="#DejaVuSans-20" transform="translate(831.494141 0)"/>
      <use xlink:href="#DejaVuSans-67" transform="translate(863.28125 0)"/>
      <use xlink:href="#DejaVuSans-61" transform="translate(926.757812 0)"/>
      <use xlink:href="#DejaVuSans-70" transform="translate(988.037109 0)"/>
      <use xlink:href="#DejaVuSans-20" transform="translate(1051.513672 0)"/>
      <use xlink:href="#DejaVuSans-28" transform="translate(1083.300781 0)"/>
      <use xlink:href="#DejaVuSans-77" transform="translate(1122.314453 0)"/>
      <use xlink:href="#DejaVuSans-69" transform="translate(1204.101562 0)"/>
      <use xlink:href="#DejaVuSans-74" transform="translate(1231.884766 0)"/>
      <use xlink:href="#DejaVuSans-68" transform="translate(1271.09375 0)"/>
      <use xlink:href="#DejaVuSans-69" transform="translate(1334.472656 0)"/>
      <use xlink:href="#DejaVuSans-6e" transform="translate(1362.255859 0)"/>
      <use xlink:href="#DejaVuSans-20" transform="translate(1425.634766 0)"/>
      <use xlink:href="#DejaVuSans-2212" transform="translate(1457.421875 0)"/>
      <use xlink:href="#DejaVuSans-20" transform="translate(1541.210938 0)"/>
      <use xlink:href="#DejaVuSans-62" transform="translate(1572.998047 0)"/>
      <use xlink:href="#DejaVuSans-65" transform="translate(1636.474609 0)"/>
      <use xlink:href="#DejaVuSans-74" transform="translate(1697.998047 0)"/>
      <use xlink:href="#DejaVuSans-77" transform="translate(1737.207031 0)"/>
      <use xlink:href="#DejaVuSans-65" transform="translate(1818.994141 0)"/>
      <use xlink:href="#DejaVuSans-65" transform="translate(1880.517578 0)"/>
      <use xlink:href="#DejaVuSans-6e" transform="translate(1942.041016 0)"/>
      <use xlink:href="#DejaVuSans-20" transform="translate(2005.419922 0)"/>
      <use xlink:href="#DejaVuSans-63" transform="translate(2037.207031 0)"/>
      <use xlink:href="#DejaVuSans-6f" transform="translate(2092.1875 0)"/>
      <use xlink:href="#DejaVuSans-73" transform="translate(2153.369141 0)"/>
      <use xlink:href="#DejaVuSans-69" transform="translate(2205.46875 0)"/>
      <use xlink:href="#DejaVuSans-6e" transform="translate(2233.251953 0)"/>
      <use xlink:href="#DejaVuSans-65" transform="translate(2296.630859 0)"/>
      <use xlink:href="#DejaVuSans-29" transform="translate(2358.154297 0)"/>
     </g>
    </g>
   </g>
   <g id="line2d_29">
    <path d="M 54.02 261.625824 
L 565.2 261.625824 
" clip-path="url(#p84f02305bd)" style="fill: none; stroke: #000000; stroke-width: 0.5; stroke-linecap: square"/>
   </g>
   <g id="patch_27">
    <path d="M 54.02 272.387347 
L 54.02 41.856 
" style="fill: none; stroke: #000000; stroke-width: 0.8; stroke-linejoin: miter; stroke-linecap: square"/>
   </g>
   <g id="patch_28">
    <path d="M 565.2 272.387347 
L 565.2 41.856 
" style="fill: none; stroke: #000000; stroke-width: 0.8; stroke-linejoin: miter; stroke-linecap: square"/>
   </g>
   <g id="patch_29">
    <path d="M 54.02 272.387347 
L 565.2 272.387347 
" style="fill: none; stroke: #000000; stroke-width: 0.8; stroke-linejoin: miter; stroke-linecap: square"/>
   </g>
   <g id="patch_30">
    <path d="M 54.02 41.856 
L 565.2 41.856 
" style="fill: none; stroke: #000000; stroke-width: 0.8; stroke-linejoin: miter; stroke-linecap: square"/>
   </g>
   <g id="text_22">
    <!-- How well does each embedding cluster by serotype? -->
    <g transform="translate(151.362813 22.418625) scale(0.12 -0.12)">
     <defs>
      <path id="DejaVuSans-48" d="M 628 4666 
L 1259 4666 
L 1259 2753 
L 3553 2753 
L 3553 4666 
L 4184 4666 
L 4184 0 
L 3553 0 
L 3553 2222 
L 1259 2222 
L 1259 0 
L 628 0 
L 628 4666 
z
" transform="scale(0.015625)"/>
      <path id="DejaVuSans-64" d="M 2906 2969 
L 2906 4863 
L 3481 4863 
L 3481 0 
L 2906 0 
L 2906 525 
Q 2725 213 2448 61 
Q 2172 -91 1784 -91 
Q 1150 -91 751 415 
Q 353 922 353 1747 
Q 353 2572 751 3078 
Q 1150 3584 1784 3584 
Q 2172 3584 2448 3432 
Q 2725 3281 2906 2969 
z
M 947 1747 
Q 947 1113 1208 752 
Q 1469 391 1925 391 
Q 2381 391 2643 752 
Q 2906 1113 2906 1747 
Q 2906 2381 2643 2742 
Q 2381 3103 1925 3103 
Q 1469 3103 1208 2742 
Q 947 2381 947 1747 
z
" transform="scale(0.015625)"/>
      <path id="DejaVuSans-3f" d="M 1222 794 
L 1856 794 
L 1856 0 
L 1222 0 
L 1222 794 
z
M 1838 1253 
L 1241 1253 
L 1241 1734 
Q 1241 2050 1328 2253 
Q 1416 2456 1697 2725 
L 1978 3003 
Q 2156 3169 2236 3316 
Q 2316 3463 2316 3616 
Q 2316 3894 2111 4066 
Q 1906 4238 1569 4238 
Q 1322 4238 1042 4128 
Q 763 4019 459 3809 
L 459 4397 
Q 753 4575 1054 4662 
Q 1356 4750 1678 4750 
Q 2253 4750 2601 4447 
Q 2950 4144 2950 3647 
Q 2950 3409 2837 3195 
Q 2725 2981 2444 2713 
L 2169 2444 
Q 2022 2297 1961 2214 
Q 1900 2131 1875 2053 
Q 1856 1988 1847 1894 
Q 1838 1800 1838 1638 
L 1838 1253 
z
" transform="scale(0.015625)"/>
     </defs>
     <use xlink:href="#DejaVuSans-48"/>
     <use xlink:href="#DejaVuSans-6f" transform="translate(75.195312 0)"/>
     <use xlink:href="#DejaVuSans-77" transform="translate(136.376953 0)"/>
     <use xlink:href="#DejaVuSans-20" transform="translate(218.164062 0)"/>
     <use xlink:href="#DejaVuSans-77" transform="translate(249.951172 0)"/>
     <use xlink:href="#DejaVuSans-65" transform="translate(331.738281 0)"/>
     <use xlink:href="#DejaVuSans-6c" transform="translate(393.261719 0)"/>
     <use xlink:href="#DejaVuSans-6c" transform="translate(421.044922 0)"/>
     <use xlink:href="#DejaVuSans-20" transform="translate(448.828125 0)"/>
     <use xlink:href="#DejaVuSans-64" transform="translate(480.615234 0)"/>
     <use xlink:href="#DejaVuSans-6f" transform="translate(544.091797 0)"/>
     <use xlink:href="#DejaVuSans-65" transform="translate(605.273438 0)"/>
     <use xlink:href="#DejaVuSans-73" transform="translate(666.796875 0)"/>
     <use xlink:href="#DejaVuSans-20" transform="translate(718.896484 0)"/>
     <use xlink:href="#DejaVuSans-65" transform="translate(750.683594 0)"/>
     <use xlink:href="#DejaVuSans-61" transform="translate(812.207031 0)"/>
     <use xlink:href="#DejaVuSans-63" transform="translate(873.486328 0)"/>
     <use xlink:href="#DejaVuSans-68" transform="translate(928.466797 0)"/>
     <use xlink:href="#DejaVuSans-20" transform="translate(991.845703 0)"/>
     <use xlink:href="#DejaVuSans-65" transform="translate(1023.632812 0)"/>
     <use xlink:href="#DejaVuSans-6d" transform="translate(1085.15625 0)"/>
     <use xlink:href="#DejaVuSans-62" transform="translate(1182.568359 0)"/>
     <use xlink:href="#DejaVuSans-65" transform="translate(1246.044922 0)"/>
     <use xlink:href="#DejaVuSans-64" transform="translate(1307.568359 0)"/>
     <use xlink:href="#DejaVuSans-64" transform="translate(1371.044922 0)"/>
     <use xlink:href="#DejaVuSans-69" transform="translate(1434.521484 0)"/>
     <use xlink:href="#DejaVuSans-6e" transform="translate(1462.304688 0)"/>
     <use xlink:href="#DejaVuSans-67" transform="translate(1525.683594 0)"/>
     <use xlink:href="#DejaVuSans-20" transform="translate(1589.160156 0)"/>
     <use xlink:href="#DejaVuSans-63" transform="translate(1620.947266 0)"/>
     <use xlink:href="#DejaVuSans-6c" transform="translate(1675.927734 0)"/>
     <use xlink:href="#DejaVuSans-75" transform="translate(1703.710938 0)"/>
     <use xlink:href="#DejaVuSans-73" transform="translate(1767.089844 0)"/>
     <use xlink:href="#DejaVuSans-74" transform="translate(1819.189453 0)"/>
     <use xlink:href="#DejaVuSans-65" transform="translate(1858.398438 0)"/>
     <use xlink:href="#DejaVuSans-72" transform="translate(1919.921875 0)"/>
     <use xlink:href="#DejaVuSans-20" transform="translate(1961.035156 0)"/>
     <use xlink:href="#DejaVuSans-62" transform="translate(1992.822266 0)"/>
     <use xlink:href="#DejaVuSans-79" transform="translate(2056.298828 0)"/>
     <use xlink:href="#DejaVuSans-20" transform="translate(2115.478516 0)"/>
     <use xlink:href="#DejaVuSans-73" transform="translate(2147.265625 0)"/>
     <use xlink:href="#DejaVuSans-65" transform="translate(2199.365234 0)"/>
     <use xlink:href="#DejaVuSans-72" transform="translate(2260.888672 0)"/>
     <use xlink:href="#DejaVuSans-6f" transform="translate(2299.751953 0)"/>
     <use xlink:href="#DejaVuSans-74" transform="translate(2360.933594 0)"/>
     <use xlink:href="#DejaVuSans-79" transform="translate(2400.142578 0)"/>
     <use xlink:href="#DejaVuSans-70" transform="translate(2459.322266 0)"/>
     <use xlink:href="#DejaVuSans-65" transform="translate(2522.798828 0)"/>
     <use xlink:href="#DejaVuSans-3f" transform="translate(2584.322266 0)"/>
    </g>
    <!-- (larger = better separation; bar colour = family; hatched = O-type) -->
    <g transform="translate(106.8175 35.856) scale(0.12 -0.12)">
     <defs>
      <path id="DejaVuSans-3d" d="M 678 2906 
L 4684 2906 
L 4684 2381 
L 678 2381 
L 678 2906 
z
M 678 1631 
L 4684 1631 
L 4684 1100 
L 678 1100 
L 678 1631 
z
" transform="scale(0.015625)"/>
      <path id="DejaVuSans-3b" d="M 750 3309 
L 1409 3309 
L 1409 2516 
L 750 2516 
L 750 3309 
z
M 750 794 
L 1409 794 
L 1409 256 
L 897 -744 
L 494 -744 
L 750 256 
L 750 794 
z
" transform="scale(0.015625)"/>
      <path id="DejaVuSans-66" d="M 2375 4863 
L 2375 4384 
L 1825 4384 
Q 1516 4384 1395 4259 
Q 1275 4134 1275 3809 
L 1275 3500 
L 2222 3500 
L 2222 3053 
L 1275 3053 
L 1275 0 
L 697 0 
L 697 3053 
L 147 3053 
L 147 3500 
L 697 3500 
L 697 3744 
Q 697 4328 969 4595 
Q 1241 4863 1831 4863 
L 2375 4863 
z
" transform="scale(0.015625)"/>
      <path id="DejaVuSans-4f" d="M 2522 4238 
Q 1834 4238 1429 3725 
Q 1025 3213 1025 2328 
Q 1025 1447 1429 934 
Q 1834 422 2522 422 
Q 3209 422 3611 934 
Q 4013 1447 4013 2328 
Q 4013 3213 3611 3725 
Q 3209 4238 2522 4238 
z
M 2522 4750 
Q 3503 4750 4090 4092 
Q 4678 3434 4678 2328 
Q 4678 1225 4090 567 
Q 3503 -91 2522 -91 
Q 1538 -91 948 565 
Q 359 1222 359 2328 
Q 359 3434 948 4092 
Q 1538 4750 2522 4750 
z
" transform="scale(0.015625)"/>
     </defs>
     <use xlink:href="#DejaVuSans-28"/>
     <use xlink:href="#DejaVuSans-6c" transform="translate(39.013672 0)"/>
     <use xlink:href="#DejaVuSans-61" transform="translate(66.796875 0)"/>
     <use xlink:href="#DejaVuSans-72" transform="translate(128.076172 0)"/>
     <use xlink:href="#DejaVuSans-67" transform="translate(167.439453 0)"/>
     <use xlink:href="#DejaVuSans-65" transform="translate(230.916016 0)"/>
     <use xlink:href="#DejaVuSans-72" transform="translate(292.439453 0)"/>
     <use xlink:href="#DejaVuSans-20" transform="translate(333.552734 0)"/>
     <use xlink:href="#DejaVuSans-3d" transform="translate(365.339844 0)"/>
     <use xlink:href="#DejaVuSans-20" transform="translate(449.128906 0)"/>
     <use xlink:href="#DejaVuSans-62" transform="translate(480.916016 0)"/>
     <use xlink:href="#DejaVuSans-65" transform="translate(544.392578 0)"/>
     <use xlink:href="#DejaVuSans-74" transform="translate(605.916016 0)"/>
     <use xlink:href="#DejaVuSans-74" transform="translate(645.125 0)"/>
     <use xlink:href="#DejaVuSans-65" transform="translate(684.333984 0)"/>
     <use xlink:href="#DejaVuSans-72" transform="translate(745.857422 0)"/>
     <use xlink:href="#DejaVuSans-20" transform="translate(786.970703 0)"/>
     <use xlink:href="#DejaVuSans-73" transform="translate(818.757812 0)"/>
     <use xlink:href="#DejaVuSans-65" transform="translate(870.857422 0)"/>
     <use xlink:href="#DejaVuSans-70" transform="translate(932.380859 0)"/>
     <use xlink:href="#DejaVuSans-61" transform="translate(995.857422 0)"/>
     <use xlink:href="#DejaVuSans-72" transform="translate(1057.136719 0)"/>
     <use xlink:href="#DejaVuSans-61" transform="translate(1098.25 0)"/>
     <use xlink:href="#DejaVuSans-74" transform="translate(1159.529297 0)"/>
     <use xlink:href="#DejaVuSans-69" transform="translate(1198.738281 0)"/>
     <use xlink:href="#DejaVuSans-6f" transform="translate(1226.521484 0)"/>
     <use xlink:href="#DejaVuSans-6e" transform="translate(1287.703125 0)"/>
     <use xlink:href="#DejaVuSans-3b" transform="translate(1351.082031 0)"/>
     <use xlink:href="#DejaVuSans-20" transform="translate(1384.773438 0)"/>
     <use xlink:href="#DejaVuSans-62" transform="translate(1416.560547 0)"/>
     <use xlink:href="#DejaVuSans-61" transform="translate(1480.037109 0)"/>
     <use xlink:href="#DejaVuSans-72" transform="translate(1541.316406 0)"/>
     <use xlink:href="#DejaVuSans-20" transform="translate(1582.429688 0)"/>
     <use xlink:href="#DejaVuSans-63" transform="translate(1614.216797 0)"/>
     <use xlink:href="#DejaVuSans-6f" transform="translate(1669.197266 0)"/>
     <use xlink:href="#DejaVuSans-6c" transform="translate(1730.378906 0)"/>
     <use xlink:href="#DejaVuSans-6f" transform="translate(1758.162109 0)"/>
     <use xlink:href="#DejaVuSans-75" transform="translate(1819.34375 0)"/>
     <use xlink:href="#DejaVuSans-72" transform="translate(1882.722656 0)"/>
     <use xlink:href="#DejaVuSans-20" transform="translate(1923.835938 0)"/>
     <use xlink:href="#DejaVuSans-3d" transform="translate(1955.623047 0)"/>
     <use xlink:href="#DejaVuSans-20" transform="translate(2039.412109 0)"/>
     <use xlink:href="#DejaVuSans-66" transform="translate(2071.199219 0)"/>
     <use xlink:href="#DejaVuSans-61" transform="translate(2106.404297 0)"/>
     <use xlink:href="#DejaVuSans-6d" transform="translate(2167.683594 0)"/>
     <use xlink:href="#DejaVuSans-69" transform="translate(2265.095703 0)"/>
     <use xlink:href="#DejaVuSans-6c" transform="translate(2292.878906 0)"/>
     <use xlink:href="#DejaVuSans-79" transform="translate(2320.662109 0)"/>
     <use xlink:href="#DejaVuSans-3b" transform="translate(2379.841797 0)"/>
     <use xlink:href="#DejaVuSans-20" transform="translate(2413.533203 0)"/>
     <use xlink:href="#DejaVuSans-68" transform="translate(2445.320312 0)"/>
     <use xlink:href="#DejaVuSans-61" transform="translate(2508.699219 0)"/>
     <use xlink:href="#DejaVuSans-74" transform="translate(2569.978516 0)"/>
     <use xlink:href="#DejaVuSans-63" transform="translate(2609.1875 0)"/>
     <use xlink:href="#DejaVuSans-68" transform="translate(2664.167969 0)"/>
     <use xlink:href="#DejaVuSans-65" transform="translate(2727.546875 0)"/>
     <use xlink:href="#DejaVuSans-64" transform="translate(2789.070312 0)"/>
     <use xlink:href="#DejaVuSans-20" transform="translate(2852.546875 0)"/>
     <use xlink:href="#DejaVuSans-3d" transform="translate(2884.333984 0)"/>
     <use xlink:href="#DejaVuSans-20" transform="translate(2968.123047 0)"/>
     <use xlink:href="#DejaVuSans-4f" transform="translate(2999.910156 0)"/>
     <use xlink:href="#DejaVuSans-2d" transform="translate(3081.371094 0)"/>
     <use xlink:href="#DejaVuSans-74" transform="translate(3117.455078 0)"/>
     <use xlink:href="#DejaVuSans-79" transform="translate(3156.664062 0)"/>
     <use xlink:href="#DejaVuSans-70" transform="translate(3215.84375 0)"/>
     <use xlink:href="#DejaVuSans-65" transform="translate(3279.320312 0)"/>
     <use xlink:href="#DejaVuSans-29" transform="translate(3340.84375 0)"/>
    </g>
   </g>
   <g id="legend_1">
    <g id="patch_31">
     <path d="M 465.36 95.226 
L 559.6 95.226 
Q 561.2 95.226 561.2 93.626 
L 561.2 47.456 
Q 561.2 45.856 559.6 45.856 
L 465.36 45.856 
Q 463.76 45.856 463.76 47.456 
L 463.76 93.626 
Q 463.76 95.226 465.36 95.226 
z
" style="fill: #ffffff; opacity: 0.8; stroke: #cccccc; stroke-linejoin: miter"/>
    </g>
    <g id="patch_32">
     <path d="M 466.96 55.13475 
L 482.96 55.13475 
L 482.96 49.53475 
L 466.96 49.53475 
z
" style="fill: #2166ac; stroke: #2166ac; stroke-linejoin: miter"/>
    </g>
    <g id="text_23">
     <!-- ESM-2 -->
     <g transform="translate(489.36 55.13475) scale(0.08 -0.08)">
      <defs>
       <path id="DejaVuSans-45" d="M 628 4666 
L 3578 4666 
L 3578 4134 
L 1259 4134 
L 1259 2753 
L 3481 2753 
L 3481 2222 
L 1259 2222 
L 1259 531 
L 3634 531 
L 3634 0 
L 628 0 
L 628 4666 
z
" transform="scale(0.015625)"/>
       <path id="DejaVuSans-53" d="M 3425 4513 
L 3425 3897 
Q 3066 4069 2747 4153 
Q 2428 4238 2131 4238 
Q 1616 4238 1336 4038 
Q 1056 3838 1056 3469 
Q 1056 3159 1242 3001 
Q 1428 2844 1947 2747 
L 2328 2669 
Q 3034 2534 3370 2195 
Q 3706 1856 3706 1288 
Q 3706 609 3251 259 
Q 2797 -91 1919 -91 
Q 1588 -91 1214 -16 
Q 841 59 441 206 
L 441 856 
Q 825 641 1194 531 
Q 1563 422 1919 422 
Q 2459 422 2753 634 
Q 3047 847 3047 1241 
Q 3047 1584 2836 1778 
Q 2625 1972 2144 2069 
L 1759 2144 
Q 1053 2284 737 2584 
Q 422 2884 422 3419 
Q 422 4038 858 4394 
Q 1294 4750 2059 4750 
Q 2388 4750 2728 4690 
Q 3069 4631 3425 4513 
z
" transform="scale(0.015625)"/>
       <path id="DejaVuSans-4d" d="M 628 4666 
L 1569 4666 
L 2759 1491 
L 3956 4666 
L 4897 4666 
L 4897 0 
L 4281 0 
L 4281 4097 
L 3078 897 
L 2444 897 
L 1241 4097 
L 1241 0 
L 628 0 
L 628 4666 
z
" transform="scale(0.015625)"/>
      </defs>
      <use xlink:href="#DejaVuSans-45"/>
      <use xlink:href="#DejaVuSans-53" transform="translate(63.183594 0)"/>
      <use xlink:href="#DejaVuSans-4d" transform="translate(126.660156 0)"/>
      <use xlink:href="#DejaVuSans-2d" transform="translate(212.939453 0)"/>
      <use xlink:href="#DejaVuSans-32" transform="translate(249.023438 0)"/>
     </g>
    </g>
    <g id="patch_33">
     <path d="M 466.96 66.87725 
L 482.96 66.87725 
L 482.96 61.27725 
L 466.96 61.27725 
z
" style="fill: #b2182b; stroke: #b2182b; stroke-linejoin: miter"/>
    </g>
    <g id="text_24">
     <!-- ProtT5 -->
     <g transform="translate(489.36 66.87725) scale(0.08 -0.08)">
      <defs>
       <path id="DejaVuSans-50" d="M 1259 4147 
L 1259 2394 
L 2053 2394 
Q 2494 2394 2734 2622 
Q 2975 2850 2975 3272 
Q 2975 3691 2734 3919 
Q 2494 4147 2053 4147 
L 1259 4147 
z
M 628 4666 
L 2053 4666 
Q 2838 4666 3239 4311 
Q 3641 3956 3641 3272 
Q 3641 2581 3239 2228 
Q 2838 1875 2053 1875 
L 1259 1875 
L 1259 0 
L 628 0 
L 628 4666 
z
" transform="scale(0.015625)"/>
       <path id="DejaVuSans-54" d="M -19 4666 
L 3928 4666 
L 3928 4134 
L 2272 4134 
L 2272 0 
L 1638 0 
L 1638 4134 
L -19 4134 
L -19 4666 
z
" transform="scale(0.015625)"/>
      </defs>
      <use xlink:href="#DejaVuSans-50"/>
      <use xlink:href="#DejaVuSans-72" transform="translate(58.552734 0)"/>
      <use xlink:href="#DejaVuSans-6f" transform="translate(97.416016 0)"/>
      <use xlink:href="#DejaVuSans-74" transform="translate(158.597656 0)"/>
      <use xlink:href="#DejaVuSans-54" transform="translate(197.806641 0)"/>
      <use xlink:href="#DejaVuSans-35" transform="translate(258.890625 0)"/>
     </g>
    </g>
    <g id="patch_34">
     <path d="M 466.96 78.61975 
L 482.96 78.61975 
L 482.96 73.01975 
L 466.96 73.01975 
z
" style="fill: #d6604d; stroke: #d6604d; stroke-linejoin: miter"/>
    </g>
    <g id="text_25">
     <!-- k-mer -->
     <g transform="translate(489.36 78.61975) scale(0.08 -0.08)">
      <use xlink:href="#DejaVuSans-6b"/>
      <use xlink:href="#DejaVuSans-2d" transform="translate(57.910156 0)"/>
      <use xlink:href="#DejaVuSans-6d" transform="translate(93.994141 0)"/>
      <use xlink:href="#DejaVuSans-65" transform="translate(191.40625 0)"/>
      <use xlink:href="#DejaVuSans-72" transform="translate(252.929688 0)"/>
     </g>
    </g>
    <g id="patch_35">
     <path d="M 466.96 90.36225 
L 482.96 90.36225 
L 482.96 84.76225 
L 466.96 84.76225 
z
" style="fill: url(#h245d84cfbb); stroke: #ffffff; stroke-linejoin: miter"/>
    </g>
    <g id="text_26">
     <!-- O-type (hatched) -->
     <g transform="translate(489.36 90.36225) scale(0.08 -0.08)">
      <use xlink:href="#DejaVuSans-4f"/>
      <use xlink:href="#DejaVuSans-2d" transform="translate(81.460938 0)"/>
      <use xlink:href="#DejaVuSans-74" transform="translate(117.544922 0)"/>
      <use xlink:href="#DejaVuSans-79" transform="translate(156.753906 0)"/>
      <use xlink:href="#DejaVuSans-70" transform="translate(215.933594 0)"/>
      <use xlink:href="#DejaVuSans-65" transform="translate(279.410156 0)"/>
      <use xlink:href="#DejaVuSans-20" transform="translate(340.933594 0)"/>
      <use xlink:href="#DejaVuSans-28" transform="translate(372.720703 0)"/>
      <use xlink:href="#DejaVuSans-68" transform="translate(411.734375 0)"/>
      <use xlink:href="#DejaVuSans-61" transform="translate(475.113281 0)"/>
      <use xlink:href="#DejaVuSans-74" transform="translate(536.392578 0)"/>
      <use xlink:href="#DejaVuSans-63" transform="translate(575.601562 0)"/>
      <use xlink:href="#DejaVuSans-68" transform="translate(630.582031 0)"/>
      <use xlink:href="#DejaVuSans-65" transform="translate(693.960938 0)"/>
      <use xlink:href="#DejaVuSans-64" transform="translate(755.484375 0)"/>
      <use xlink:href="#DejaVuSans-29" transform="translate(818.960938 0)"/>
     </g>
    </g>
   </g>
  </g>
 </g>
 <defs>
  <clipPath id="p84f02305bd">
   <rect x="54.02" y="41.856" width="511.18" height="230.531347"/>
  </clipPath>
 </defs>
 <defs>
  <pattern id="hc4aabcacff" patternUnits="userSpaceOnUse" x="0" y="0" width="72" height="72">
   <rect x="0" y="0" width="73" height="73" fill="#d6604d"/>
   <path d="M -36 36 
L 36 -36 
M -32 40 
L 40 -32 
M -28 44 
L 44 -28 
M -24 48 
L 48 -24 
M -20 52 
L 52 -20 
M -16 56 
L 56 -16 
M -12 60 
L 60 -12 
M -8 64 
L 64 -8 
M -4 68 
L 68 -4 
M 0 72 
L 72 0 
M 4 76 
L 76 4 
M 8 80 
L 80 8 
M 12 84 
L 84 12 
M 16 88 
L 88 16 
M 20 92 
L 92 20 
M 24 96 
L 96 24 
M 28 100 
L 100 28 
M 32 104 
L 104 32 
M 36 108 
L 108 36 
" style="fill: #000000; stroke: #000000; stroke-width: 1.0; stroke-linecap: butt; stroke-linejoin: miter; stroke-opacity: 0.7"/>
  </pattern>
  <pattern id="ha066093cb9" patternUnits="userSpaceOnUse" x="0" y="0" width="72" height="72">
   <rect x="0" y="0" width="73" height="73" fill="#b2182b"/>
   <path d="M -36 36 
L 36 -36 
M -32 40 
L 40 -32 
M -28 44 
L 44 -28 
M -24 48 
L 48 -24 
M -20 52 
L 52 -20 
M -16 56 
L 56 -16 
M -12 60 
L 60 -12 
M -8 64 
L 64 -8 
M -4 68 
L 68 -4 
M 0 72 
L 72 0 
M 4 76 
L 76 4 
M 8 80 
L 80 8 
M 12 84 
L 84 12 
M 16 88 
L 88 16 
M 20 92 
L 92 20 
M 24 96 
L 96 24 
M 28 100 
L 100 28 
M 32 104 
L 104 32 
M 36 108 
L 108 36 
" style="fill: #000000; stroke: #000000; stroke-width: 1.0; stroke-linecap: butt; stroke-linejoin: miter; stroke-opacity: 0.7"/>
  </pattern>
  <pattern id="h50d7502e8a" patternUnits="userSpaceOnUse" x="0" y="0" width="72" height="72">
   <rect x="0" y="0" width="73" height="73" fill="#2166ac"/>
   <path d="M -36 36 
L 36 -36 
M -32 40 
L 40 -32 
M -28 44 
L 44 -28 
M -24 48 
L 48 -24 
M -20 52 
L 52 -20 
M -16 56 
L 56 -16 
M -12 60 
L 60 -12 
M -8 64 
L 64 -8 
M -4 68 
L 68 -4 
M 0 72 
L 72 0 
M 4 76 
L 76 4 
M 8 80 
L 80 8 
M 12 84 
L 84 12 
M 16 88 
L 88 16 
M 20 92 
L 92 20 
M 24 96 
L 96 24 
M 28 100 
L 100 28 
M 32 104 
L 104 32 
M 36 108 
L 108 36 
" style="fill: #000000; stroke: #000000; stroke-width: 1.0; stroke-linecap: butt; stroke-linejoin: miter; stroke-opacity: 0.7"/>
  </pattern>
  <pattern id="h245d84cfbb" patternUnits="userSpaceOnUse" x="0" y="0" width="72" height="72">
   <rect x="0" y="0" width="73" height="73" fill="#ffffff"/>
   <path d="M -36 36 
L 36 -36 
M -32 40 
L 40 -32 
M -28 44 
L 44 -28 
M -24 48 
L 48 -24 
M -20 52 
L 52 -20 
M -16 56 
L 56 -16 
M -12 60 
L 60 -12 
M -8 64 
L 64 -8 
M -4 68 
L 68 -4 
M 0 72 
L 72 0 
M 4 76 
L 76 4 
M 8 80 
L 80 8 
M 12 84 
L 84 12 
M 16 88 
L 88 16 
M 20 92 
L 92 20 
M 24 96 
L 96 24 
M 28 100 
L 100 28 
M 32 104 
L 104 32 
M 36 108 
L 108 36 
" style="fill: #ffffff; stroke: #ffffff; stroke-width: 1.0; stroke-linecap: butt; stroke-linejoin: miter"/>
  </pattern>
 </defs>
</svg>
