<?xml version="1.0" encoding="utf-8" standalone="no"?>
<!DOCTYPE svg PUBLIC "-//W3C//DTD SVG 1.1//EN"
  "http://www.w3.org/Graphics/SVG/1.1/DTD/svg11.dtd">
<svg xmlns:xlink="http://www.w3.org/1999/xlink" width="576pt" height="360pt" viewBox="0 0 576 360" xmlns="http://www.w3.org/2000/svg" version="1.1">
 <metadata>
  <rdf:RDF xmlns:dc="http://purl.org/dc/elements/1.1/" xmlns:cc="http://creativecommons.org/ns#" xmlns:rdf="http://www.w3.org/1999/02/22-rdf-syntax-ns#">
   <cc:Work>
    <dc:type rdf:resource="http://purl.org/dc/dcmitype/StillImage"/>
    <dc:date>2026-04-21T15:47:53.954349</dc:date>
    <dc:format>image/svg+xml</dc:format>
    <dc:creator>
     <cc:Agent>
      <dc:title>Matplotlib v3.10.8, https://matplotlib.org/</dc:title>
     </cc:Agent>
    </dc:creator>
   </cc:Work>
  </rdf:RDF>
 </metadata>
 <defs>
  <style type="text/css">*{stroke-linejoin: round; stroke-linecap: butt}</style>
 </defs>
 <g id="figure_1">
  <g id="patch_1">
   <path d="M 0 360 
L 576 360 
L 576 0 
L 0 0 
z
" style="fill: #ffffff"/>
  </g>
  <g id="axes_1">
   <g id="patch_2">
    <path d="M 47.72 272.387347 
L 518.889907 272.387347 
L 518.889907 41.856 
L 47.72 41.856 
z
" style="fill: #ffffff"/>
   </g>
   <g id="patch_3">
    <path d="M 69.136814 261.647009 
L 82.977612 261.647009 
L 82.977612 134.75142 
L 69.136814 134.75142 
z
" clip-path="url(#p5c1499b2d2)" style="fill: #d6604d; stroke: #000000; stroke-width: 0.4; stroke-linejoin: miter"/>
   </g>
   <g id="patch_4">
    <path d="M 105.559967 261.647009 
L 119.400765 261.647009 
L 119.400765 136.321263 
L 105.559967 136.321263 
z
" clip-path="url(#p5c1499b2d2)" style="fill: #d6604d; stroke: #000000; stroke-width: 0.4; stroke-linejoin: miter"/>
   </g>
   <g id="patch_5">
    <path d="M 141.98312 261.647009 
L 155.823918 261.647009 
L 155.823918 136.321263 
L 141.98312 136.321263 
z
" clip-path="url(#p5c1499b2d2)" style="fill: #d6604d; stroke: #000000; stroke-width: 0.4; stroke-linejoin: miter"/>
   </g>
   <g id="patch_6">
    <path d="M 178.406273 261.647009 
L 192.247071 261.647009 
L 192.247071 135.797982 
L 178.406273 135.797982 
z
" clip-path="url(#p5c1499b2d2)" style="fill: #d6604d; stroke: #000000; stroke-width: 0.4; stroke-linejoin: miter"/>
   </g>
   <g id="patch_7">
    <path d="M 214.829426 261.647009 
L 228.670224 261.647009 
L 228.670224 147.310159 
L 214.829426 147.310159 
z
" clip-path="url(#p5c1499b2d2)" style="fill: #d6604d; stroke: #000000; stroke-width: 0.4; stroke-linejoin: miter"/>
   </g>
   <g id="patch_8">
    <path d="M 251.252579 261.647009 
L 265.093377 261.647009 
L 265.093377 224.494074 
L 251.252579 224.494074 
z
" clip-path="url(#p5c1499b2d2)" style="fill: #b2182b; stroke: #000000; stroke-width: 0.4; stroke-linejoin: miter"/>
   </g>
   <g id="patch_9">
    <path d="M 287.675732 261.647009 
L 301.51653 261.647009 
L 301.51653 251.966315 
L 287.675732 251.966315 
z
" clip-path="url(#p5c1499b2d2)" style="fill: #2166ac; stroke: #000000; stroke-width: 0.4; stroke-linejoin: miter"/>
   </g>
   <g id="patch_10">
    <path d="M 324.098885 261.647009 
L 337.939683 261.647009 
L 337.939683 244.640384 
L 324.098885 244.640384 
z
" clip-path="url(#p5c1499b2d2)" style="fill: #2166ac; stroke: #000000; stroke-width: 0.4; stroke-linejoin: miter"/>
   </g>
   <g id="patch_11">
    <path d="M 360.522038 261.647009 
L 374.362836 261.647009 
L 374.362836 246.210226 
L 360.522038 246.210226 
z
" clip-path="url(#p5c1499b2d2)" style="fill: #2166ac; stroke: #000000; stroke-width: 0.4; stroke-linejoin: miter"/>
   </g>
   <g id="patch_12">
    <path d="M 396.945191 261.647009 
L 410.785989 261.647009 
L 410.785989 248.56499 
L 396.945191 248.56499 
z
" clip-path="url(#p5c1499b2d2)" style="fill: #2166ac; stroke: #000000; stroke-width: 0.4; stroke-linejoin: miter"/>
   </g>
   <g id="patch_13">
    <path d="M 433.368344 261.647009 
L 447.209142 261.647009 
L 447.209142 249.611552 
L 433.368344 249.611552 
z
" clip-path="url(#p5c1499b2d2)" style="fill: #2166ac; stroke: #000000; stroke-width: 0.4; stroke-linejoin: miter"/>
   </g>
   <g id="patch_14">
    <path d="M 469.791497 261.647009 
L 483.632295 261.647009 
L 483.632295 242.808901 
L 469.791497 242.808901 
z
" clip-path="url(#p5c1499b2d2)" style="fill: #2166ac; stroke: #000000; stroke-width: 0.4; stroke-linejoin: miter"/>
   </g>
   <g id="patch_15">
    <path d="M 82.977612 261.647009 
L 96.81841 261.647009 
L 96.81841 233.913128 
L 82.977612 233.913128 
z
" clip-path="url(#p5c1499b2d2)" style="fill: url(#h31e86b2ef5); opacity: 0.7; stroke: #000000; stroke-width: 0.4; stroke-linejoin: miter"/>
   </g>
   <g id="patch_16">
    <path d="M 119.400765 261.647009 
L 133.241563 261.647009 
L 133.241563 233.389847 
L 119.400765 233.389847 
z
" clip-path="url(#p5c1499b2d2)" style="fill: url(#h31e86b2ef5); opacity: 0.7; stroke: #000000; stroke-width: 0.4; stroke-linejoin: miter"/>
   </g>
   <g id="patch_17">
    <path d="M 155.823918 261.647009 
L 169.664716 261.647009 
L 169.664716 233.389847 
L 155.823918 233.389847 
z
" clip-path="url(#p5c1499b2d2)" style="fill: url(#h31e86b2ef5); opacity: 0.7; stroke: #000000; stroke-width: 0.4; stroke-linejoin: miter"/>
   </g>
   <g id="patch_18">
    <path d="M 192.247071 261.647009 
L 206.087869 261.647009 
L 206.087869 233.913128 
L 192.247071 233.913128 
z
" clip-path="url(#p5c1499b2d2)" style="fill: url(#h31e86b2ef5); opacity: 0.7; stroke: #000000; stroke-width: 0.4; stroke-linejoin: miter"/>
   </g>
   <g id="patch_19">
    <path d="M 228.670224 261.647009 
L 242.511022 261.647009 
L 242.511022 236.267892 
L 228.670224 236.267892 
z
" clip-path="url(#p5c1499b2d2)" style="fill: url(#h31e86b2ef5); opacity: 0.7; stroke: #000000; stroke-width: 0.4; stroke-linejoin: miter"/>
   </g>
   <g id="patch_20">
    <path d="M 265.093377 261.647009 
L 278.934175 261.647009 
L 278.934175 253.536157 
L 265.093377 253.536157 
z
" clip-path="url(#p5c1499b2d2)" style="fill: url(#hd945a8f491); opacity: 0.7; stroke: #000000; stroke-width: 0.4; stroke-linejoin: miter"/>
   </g>
   <g id="patch_21">
    <path d="M 301.51653 261.647009 
L 315.357328 261.647009 
L 315.357328 260.077167 
L 301.51653 260.077167 
z
" clip-path="url(#p5c1499b2d2)" style="fill: url(#h76e9d64ed4); opacity: 0.7; stroke: #000000; stroke-width: 0.4; stroke-linejoin: miter"/>
   </g>
   <g id="patch_22">
    <path d="M 337.939683 261.647009 
L 351.780481 261.647009 
L 351.780481 260.600448 
L 337.939683 260.600448 
z
" clip-path="url(#p5c1499b2d2)" style="fill: url(#h76e9d64ed4); opacity: 0.7; stroke: #000000; stroke-width: 0.4; stroke-linejoin: miter"/>
   </g>
   <g id="patch_23">
    <path d="M 374.362836 261.647009 
L 388.203634 261.647009 
L 388.203634 254.059438 
L 374.362836 254.059438 
z
" clip-path="url(#p5c1499b2d2)" style="fill: url(#h76e9d64ed4); opacity: 0.7; stroke: #000000; stroke-width: 0.4; stroke-linejoin: miter"/>
   </g>
   <g id="patch_24">
    <path d="M 410.785989 261.647009 
L 424.626787 261.647009 
L 424.626787 253.797798 
L 410.785989 253.797798 
z
" clip-path="url(#p5c1499b2d2)" style="fill: url(#h76e9d64ed4); opacity: 0.7; stroke: #000000; stroke-width: 0.4; stroke-linejoin: miter"/>
   </g>
   <g id="patch_25">
    <path d="M 447.209142 261.647009 
L 461.04994 261.647009 
L 461.04994 261.90865 
L 447.209142 261.90865 
z
" clip-path="url(#p5c1499b2d2)" style="fill: url(#h76e9d64ed4); opacity: 0.7; stroke: #000000; stroke-width: 0.4; stroke-linejoin: miter"/>
   </g>
   <g id="patch_26">
    <path d="M 483.632295 261.647009 
L 497.473093 261.647009 
L 497.473093 260.338808 
L 483.632295 260.338808 
z
" clip-path="url(#p5c1499b2d2)" style="fill: url(#h76e9d64ed4); opacity: 0.7; stroke: #000000; stroke-width: 0.4; stroke-linejoin: miter"/>
   </g>
   <g id="matplotlib.axis_1">
    <g id="xtick_1">
     <g id="line2d_1">
      <defs>
       <path id="meedc7ae4a5" d="M 0 0 
L 0 3.5 
" style="stroke: #000000; stroke-width: 0.8"/>
      </defs>
      <g>
       <use xlink:href="#meedc7ae4a5" x="82.977612" y="272.387347" style="stroke: #000000; stroke-width: 0.8"/>
      </g>
     </g>
     <g id="text_1">
      <!-- kmer_murphy10_k5 -->
      <g transform="translate(18.176579 347.523494) rotate(-45) scale(0.09 -0.09)">
       <defs>
        <path id="DejaVuSans-6b" d="M 581 4863 
L 1159 4863 
L 1159 1991 
L 2875 3500 
L 3609 3500 
L 1753 1863 
L 3688 0 
L 2938 0 
L 1159 1709 
L 1159 0 
L 581 0 
L 581 4863 
z
" transform="scale(0.015625)"/>
        <path id="DejaVuSans-6d" d="M 3328 2828 
Q 3544 3216 3844 3400 
Q 4144 3584 4550 3584 
Q 5097 3584 5394 3201 
Q 5691 2819 5691 2113 
L 5691 0 
L 5113 0 
L 5113 2094 
Q 5113 2597 4934 2840 
Q 4756 3084 4391 3084 
Q 3944 3084 3684 2787 
Q 3425 2491 3425 1978 
L 3425 0 
L 2847 0 
L 2847 2094 
Q 2847 2600 2669 2842 
Q 2491 3084 2119 3084 
Q 1678 3084 1418 2786 
Q 1159 2488 1159 1978 
L 1159 0 
L 581 0 
L 581 3500 
L 1159 3500 
L 1159 2956 
Q 1356 3278 1631 3431 
Q 1906 3584 2284 3584 
Q 2666 3584 2933 3390 
Q 3200 3197 3328 2828 
z
" transform="scale(0.015625)"/>
        <path id="DejaVuSans-65" d="M 3597 1894 
L 3597 1613 
L 953 1613 
Q 991 1019 1311 708 
Q 1631 397 2203 397 
Q 2534 397 2845 478 
Q 3156 559 3463 722 
L 3463 178 
Q 3153 47 2828 -22 
Q 2503 -91 2169 -91 
Q 1331 -91 842 396 
Q 353 884 353 1716 
Q 353 2575 817 3079 
Q 1281 3584 2069 3584 
Q 2775 3584 3186 3129 
Q 3597 2675 3597 1894 
z
M 3022 2063 
Q 3016 2534 2758 2815 
Q 2500 3097 2075 3097 
Q 1594 3097 1305 2825 
Q 1016 2553 972 2059 
L 3022 2063 
z
" transform="scale(0.015625)"/>
        <path id="DejaVuSans-72" d="M 2631 2963 
Q 2534 3019 2420 3045 
Q 2306 3072 2169 3072 
Q 1681 3072 1420 2755 
Q 1159 2438 1159 1844 
L 1159 0 
L 581 0 
L 581 3500 
L 1159 3500 
L 1159 2956 
Q 1341 3275 1631 3429 
Q 1922 3584 2338 3584 
Q 2397 3584 2469 3576 
Q 2541 3569 2628 3553 
L 2631 2963 
z
" transform="scale(0.015625)"/>
        <path id="DejaVuSans-5f" d="M 3263 -1063 
L 3263 -1509 
L -63 -1509 
L -63 -1063 
L 3263 -1063 
z
" transform="scale(0.015625)"/>
        <path id="DejaVuSans-75" d="M 544 1381 
L 544 3500 
L 1119 3500 
L 1119 1403 
Q 1119 906 1312 657 
Q 1506 409 1894 409 
Q 2359 409 2629 706 
Q 2900 1003 2900 1516 
L 2900 3500 
L 3475 3500 
L 3475 0 
L 2900 0 
L 2900 538 
Q 2691 219 2414 64 
Q 2138 -91 1772 -91 
Q 1169 -91 856 284 
Q 544 659 544 1381 
z
M 1991 3584 
L 1991 3584 
z
" transform="scale(0.015625)"/>
        <path id="DejaVuSans-70" d="M 1159 525 
L 1159 -1331 
L 581 -1331 
L 581 3500 
L 1159 3500 
L 1159 2969 
Q 1341 3281 1617 3432 
Q 1894 3584 2278 3584 
Q 2916 3584 3314 3078 
Q 3713 2572 3713 1747 
Q 3713 922 3314 415 
Q 2916 -91 2278 -91 
Q 1894 -91 1617 61 
Q 1341 213 1159 525 
z
M 3116 1747 
Q 3116 2381 2855 2742 
Q 2594 3103 2138 3103 
Q 1681 3103 1420 2742 
Q 1159 2381 1159 1747 
Q 1159 1113 1420 752 
Q 1681 391 2138 391 
Q 2594 391 2855 752 
Q 3116 1113 3116 1747 
z
" transform="scale(0.015625)"/>
        <path id="DejaVuSans-68" d="M 3513 2113 
L 3513 0 
L 2938 0 
L 2938 2094 
Q 2938 2591 2744 2837 
Q 2550 3084 2163 3084 
Q 1697 3084 1428 2787 
Q 1159 2491 1159 1978 
L 1159 0 
L 581 0 
L 581 4863 
L 1159 4863 
L 1159 2956 
Q 1366 3272 1645 3428 
Q 1925 3584 2291 3584 
Q 2894 3584 3203 3211 
Q 3513 2838 3513 2113 
z
" transform="scale(0.015625)"/>
        <path id="DejaVuSans-79" d="M 2059 -325 
Q 1816 -950 1584 -1140 
Q 1353 -1331 966 -1331 
L 506 -1331 
L 506 -850 
L 844 -850 
Q 1081 -850 1212 -737 
Q 1344 -625 1503 -206 
L 1606 56 
L 191 3500 
L 800 3500 
L 1894 763 
L 2988 3500 
L 3597 3500 
L 2059 -325 
z
" transform="scale(0.015625)"/>
        <path id="DejaVuSans-31" d="M 794 531 
L 1825 531 
L 1825 4091 
L 703 3866 
L 703 4441 
L 1819 4666 
L 2450 4666 
L 2450 531 
L 3481 531 
L 3481 0 
L 794 0 
L 794 531 
z
" transform="scale(0.015625)"/>
        <path id="DejaVuSans-30" d="M 2034 4250 
Q 1547 4250 1301 3770 
Q 1056 3291 1056 2328 
Q 1056 1369 1301 889 
Q 1547 409 2034 409 
Q 2525 409 2770 889 
Q 3016 1369 3016 2328 
Q 3016 3291 2770 3770 
Q 2525 4250 2034 4250 
z
M 2034 4750 
Q 2819 4750 3233 4129 
Q 3647 3509 3647 2328 
Q 3647 1150 3233 529 
Q 2819 -91 2034 -91 
Q 1250 -91 836 529 
Q 422 1150 422 2328 
Q 422 3509 836 4129 
Q 1250 4750 2034 4750 
z
" transform="scale(0.015625)"/>
        <path id="DejaVuSans-35" d="M 691 4666 
L 3169 4666 
L 3169 4134 
L 1269 4134 
L 1269 2991 
Q 1406 3038 1543 3061 
Q 1681 3084 1819 3084 
Q 2600 3084 3056 2656 
Q 3513 2228 3513 1497 
Q 3513 744 3044 326 
Q 2575 -91 1722 -91 
Q 1428 -91 1123 -41 
Q 819 9 494 109 
L 494 744 
Q 775 591 1075 516 
Q 1375 441 1709 441 
Q 2250 441 2565 725 
Q 2881 1009 2881 1497 
Q 2881 1984 2565 2268 
Q 2250 2553 1709 2553 
Q 1456 2553 1204 2497 
Q 953 2441 691 2322 
L 691 4666 
z
" transform="scale(0.015625)"/>
       </defs>
       <use xlink:href="#DejaVuSans-6b"/>
       <use xlink:href="#DejaVuSans-6d" transform="translate(57.910156 0)"/>
       <use xlink:href="#DejaVuSans-65" transform="translate(155.322266 0)"/>
       <use xlink:href="#DejaVuSans-72" transform="translate(216.845703 0)"/>
       <use xlink:href="#DejaVuSans-5f" transform="translate(257.958984 0)"/>
       <use xlink:href="#DejaVuSans-6d" transform="translate(307.958984 0)"/>
       <use xlink:href="#DejaVuSans-75" transform="translate(405.371094 0)"/>
       <use xlink:href="#DejaVuSans-72" transform="translate(468.75 0)"/>
       <use xlink:href="#DejaVuSans-70" transform="translate(509.863281 0)"/>
       <use xlink:href="#DejaVuSans-68" transform="translate(573.339844 0)"/>
       <use xlink:href="#DejaVuSans-79" transform="translate(636.71875 0)"/>
       <use xlink:href="#DejaVuSans-31" transform="translate(695.898438 0)"/>
       <use xlink:href="#DejaVuSans-30" transform="translate(759.521484 0)"/>
       <use xlink:href="#DejaVuSans-5f" transform="translate(823.144531 0)"/>
       <use xlink:href="#DejaVuSans-6b" transform="translate(873.144531 0)"/>
       <use xlink:href="#DejaVuSans-35" transform="translate(931.054688 0)"/>
      </g>
     </g>
    </g>
    <g id="xtick_2">
     <g id="line2d_2">
      <g>
       <use xlink:href="#meedc7ae4a5" x="119.400765" y="272.387347" style="stroke: #000000; stroke-width: 0.8"/>
      </g>
     </g>
     <g id="text_2">
      <!-- kmer_li10_k5 -->
      <g transform="translate(75.751947 326.371279) rotate(-45) scale(0.09 -0.09)">
       <defs>
        <path id="DejaVuSans-6c" d="M 603 4863 
L 1178 4863 
L 1178 0 
L 603 0 
L 603 4863 
z
" transform="scale(0.015625)"/>
        <path id="DejaVuSans-69" d="M 603 3500 
L 1178 3500 
L 1178 0 
L 603 0 
L 603 3500 
z
M 603 4863 
L 1178 4863 
L 1178 4134 
L 603 4134 
L 603 4863 
z
" transform="scale(0.015625)"/>
       </defs>
       <use xlink:href="#DejaVuSans-6b"/>
       <use xlink:href="#DejaVuSans-6d" transform="translate(57.910156 0)"/>
       <use xlink:href="#DejaVuSans-65" transform="translate(155.322266 0)"/>
       <use xlink:href="#DejaVuSans-72" transform="translate(216.845703 0)"/>
       <use xlink:href="#DejaVuSans-5f" transform="translate(257.958984 0)"/>
       <use xlink:href="#DejaVuSans-6c" transform="translate(307.958984 0)"/>
       <use xlink:href="#DejaVuSans-69" transform="translate(335.742188 0)"/>
       <use xlink:href="#DejaVuSans-31" transform="translate(363.525391 0)"/>
       <use xlink:href="#DejaVuSans-30" transform="translate(427.148438 0)"/>
       <use xlink:href="#DejaVuSans-5f" transform="translate(490.771484 0)"/>
       <use xlink:href="#DejaVuSans-6b" transform="translate(540.771484 0)"/>
       <use xlink:href="#DejaVuSans-35" transform="translate(598.681641 0)"/>
      </g>
     </g>
    </g>
    <g id="xtick_3">
     <g id="line2d_3">
      <g>
       <use xlink:href="#meedc7ae4a5" x="155.823918" y="272.387347" style="stroke: #000000; stroke-width: 0.8"/>
      </g>
     </g>
     <g id="text_3">
      <!-- kmer_murphy8_k5 -->
      <g transform="translate(95.071955 343.474424) rotate(-45) scale(0.09 -0.09)">
       <defs>
        <path id="DejaVuSans-38" d="M 2034 2216 
Q 1584 2216 1326 1975 
Q 1069 1734 1069 1313 
Q 1069 891 1326 650 
Q 1584 409 2034 409 
Q 2484 409 2743 651 
Q 3003 894 3003 1313 
Q 3003 1734 2745 1975 
Q 2488 2216 2034 2216 
z
M 1403 2484 
Q 997 2584 770 2862 
Q 544 3141 544 3541 
Q 544 4100 942 4425 
Q 1341 4750 2034 4750 
Q 2731 4750 3128 4425 
Q 3525 4100 3525 3541 
Q 3525 3141 3298 2862 
Q 3072 2584 2669 2484 
Q 3125 2378 3379 2068 
Q 3634 1759 3634 1313 
Q 3634 634 3220 271 
Q 2806 -91 2034 -91 
Q 1263 -91 848 271 
Q 434 634 434 1313 
Q 434 1759 690 2068 
Q 947 2378 1403 2484 
z
M 1172 3481 
Q 1172 3119 1398 2916 
Q 1625 2713 2034 2713 
Q 2441 2713 2670 2916 
Q 2900 3119 2900 3481 
Q 2900 3844 2670 4047 
Q 2441 4250 2034 4250 
Q 1625 4250 1398 4047 
Q 1172 3844 1172 3481 
z
" transform="scale(0.015625)"/>
       </defs>
       <use xlink:href="#DejaVuSans-6b"/>
       <use xlink:href="#DejaVuSans-6d" transform="translate(57.910156 0)"/>
       <use xlink:href="#DejaVuSans-65" transform="translate(155.322266 0)"/>
       <use xlink:href="#DejaVuSans-72" transform="translate(216.845703 0)"/>
       <use xlink:href="#DejaVuSans-5f" transform="translate(257.958984 0)"/>
       <use xlink:href="#DejaVuSans-6d" transform="translate(307.958984 0)"/>
       <use xlink:href="#DejaVuSans-75" transform="translate(405.371094 0)"/>
       <use xlink:href="#DejaVuSans-72" transform="translate(468.75 0)"/>
       <use xlink:href="#DejaVuSans-70" transform="translate(509.863281 0)"/>
       <use xlink:href="#DejaVuSans-68" transform="translate(573.339844 0)"/>
       <use xlink:href="#DejaVuSans-79" transform="translate(636.71875 0)"/>
       <use xlink:href="#DejaVuSans-38" transform="translate(695.898438 0)"/>
       <use xlink:href="#DejaVuSans-5f" transform="translate(759.521484 0)"/>
       <use xlink:href="#DejaVuSans-6b" transform="translate(809.521484 0)"/>
       <use xlink:href="#DejaVuSans-35" transform="translate(867.431641 0)"/>
      </g>
     </g>
    </g>
    <g id="xtick_4">
     <g id="line2d_4">
      <g>
       <use xlink:href="#meedc7ae4a5" x="192.247071" y="272.387347" style="stroke: #000000; stroke-width: 0.8"/>
      </g>
     </g>
     <g id="text_4">
      <!-- kmer_aa20_k4 -->
      <g transform="translate(144.3344 330.635132) rotate(-45) scale(0.09 -0.09)">
       <defs>
        <path id="DejaVuSans-61" d="M 2194 1759 
Q 1497 1759 1228 1600 
Q 959 1441 959 1056 
Q 959 750 1161 570 
Q 1363 391 1709 391 
Q 2188 391 2477 730 
Q 2766 1069 2766 1631 
L 2766 1759 
L 2194 1759 
z
M 3341 1997 
L 3341 0 
L 2766 0 
L 2766 531 
Q 2569 213 2275 61 
Q 1981 -91 1556 -91 
Q 1019 -91 701 211 
Q 384 513 384 1019 
Q 384 1609 779 1909 
Q 1175 2209 1959 2209 
L 2766 2209 
L 2766 2266 
Q 2766 2663 2505 2880 
Q 2244 3097 1772 3097 
Q 1472 3097 1187 3025 
Q 903 2953 641 2809 
L 641 3341 
Q 956 3463 1253 3523 
Q 1550 3584 1831 3584 
Q 2591 3584 2966 3190 
Q 3341 2797 3341 1997 
z
" transform="scale(0.015625)"/>
        <path id="DejaVuSans-32" d="M 1228 531 
L 3431 531 
L 3431 0 
L 469 0 
L 469 531 
Q 828 903 1448 1529 
Q 2069 2156 2228 2338 
Q 2531 2678 2651 2914 
Q 2772 3150 2772 3378 
Q 2772 3750 2511 3984 
Q 2250 4219 1831 4219 
Q 1534 4219 1204 4116 
Q 875 4013 500 3803 
L 500 4441 
Q 881 4594 1212 4672 
Q 1544 4750 1819 4750 
Q 2544 4750 2975 4387 
Q 3406 4025 3406 3419 
Q 3406 3131 3298 2873 
Q 3191 2616 2906 2266 
Q 2828 2175 2409 1742 
Q 1991 1309 1228 531 
z
" transform="scale(0.015625)"/>
        <path id="DejaVuSans-34" d="M 2419 4116 
L 825 1625 
L 2419 1625 
L 2419 4116 
z
M 2253 4666 
L 3047 4666 
L 3047 1625 
L 3713 1625 
L 3713 1100 
L 3047 1100 
L 3047 0 
L 2419 0 
L 2419 1100 
L 313 1100 
L 313 1709 
L 2253 4666 
z
" transform="scale(0.015625)"/>
       </defs>
       <use xlink:href="#DejaVuSans-6b"/>
       <use xlink:href="#DejaVuSans-6d" transform="translate(57.910156 0)"/>
       <use xlink:href="#DejaVuSans-65" transform="translate(155.322266 0)"/>
       <use xlink:href="#DejaVuSans-72" transform="translate(216.845703 0)"/>
       <use xlink:href="#DejaVuSans-5f" transform="translate(257.958984 0)"/>
       <use xlink:href="#DejaVuSans-61" transform="translate(307.958984 0)"/>
       <use xlink:href="#DejaVuSans-61" transform="translate(369.238281 0)"/>
       <use xlink:href="#DejaVuSans-32" transform="translate(430.517578 0)"/>
       <use xlink:href="#DejaVuSans-30" transform="translate(494.140625 0)"/>
       <use xlink:href="#DejaVuSans-5f" transform="translate(557.763672 0)"/>
       <use xlink:href="#DejaVuSans-6b" transform="translate(607.763672 0)"/>
       <use xlink:href="#DejaVuSans-34" transform="translate(665.673828 0)"/>
      </g>
     </g>
    </g>
    <g id="xtick_5">
     <g id="line2d_5">
      <g>
       <use xlink:href="#meedc7ae4a5" x="228.670224" y="272.387347" style="stroke: #000000; stroke-width: 0.8"/>
      </g>
     </g>
     <g id="text_5">
      <!-- kmer_aa20_k3 -->
      <g transform="translate(180.757553 330.635132) rotate(-45) scale(0.09 -0.09)">
       <defs>
        <path id="DejaVuSans-33" d="M 2597 2516 
Q 3050 2419 3304 2112 
Q 3559 1806 3559 1356 
Q 3559 666 3084 287 
Q 2609 -91 1734 -91 
Q 1441 -91 1130 -33 
Q 819 25 488 141 
L 488 750 
Q 750 597 1062 519 
Q 1375 441 1716 441 
Q 2309 441 2620 675 
Q 2931 909 2931 1356 
Q 2931 1769 2642 2001 
Q 2353 2234 1838 2234 
L 1294 2234 
L 1294 2753 
L 1863 2753 
Q 2328 2753 2575 2939 
Q 2822 3125 2822 3475 
Q 2822 3834 2567 4026 
Q 2313 4219 1838 4219 
Q 1578 4219 1281 4162 
Q 984 4106 628 3988 
L 628 4550 
Q 988 4650 1302 4700 
Q 1616 4750 1894 4750 
Q 2613 4750 3031 4423 
Q 3450 4097 3450 3541 
Q 3450 3153 3228 2886 
Q 3006 2619 2597 2516 
z
" transform="scale(0.015625)"/>
       </defs>
       <use xlink:href="#DejaVuSans-6b"/>
       <use xlink:href="#DejaVuSans-6d" transform="translate(57.910156 0)"/>
       <use xlink:href="#DejaVuSans-65" transform="translate(155.322266 0)"/>
       <use xlink:href="#DejaVuSans-72" transform="translate(216.845703 0)"/>
       <use xlink:href="#DejaVuSans-5f" transform="translate(257.958984 0)"/>
       <use xlink:href="#DejaVuSans-61" transform="translate(307.958984 0)"/>
       <use xlink:href="#DejaVuSans-61" transform="translate(369.238281 0)"/>
       <use xlink:href="#DejaVuSans-32" transform="translate(430.517578 0)"/>
       <use xlink:href="#DejaVuSans-30" transform="translate(494.140625 0)"/>
       <use xlink:href="#DejaVuSans-5f" transform="translate(557.763672 0)"/>
       <use xlink:href="#DejaVuSans-6b" transform="translate(607.763672 0)"/>
       <use xlink:href="#DejaVuSans-33" transform="translate(665.673828 0)"/>
      </g>
     </g>
    </g>
    <g id="xtick_6">
     <g id="line2d_6">
      <g>
       <use xlink:href="#meedc7ae4a5" x="265.093377" y="272.387347" style="stroke: #000000; stroke-width: 0.8"/>
      </g>
     </g>
     <g id="text_6">
      <!-- prott5_mean -->
      <g transform="translate(222.91722 324.721621) rotate(-45) scale(0.09 -0.09)">
       <defs>
        <path id="DejaVuSans-6f" d="M 1959 3097 
Q 1497 3097 1228 2736 
Q 959 2375 959 1747 
Q 959 1119 1226 758 
Q 1494 397 1959 397 
Q 2419 397 2687 759 
Q 2956 1122 2956 1747 
Q 2956 2369 2687 2733 
Q 2419 3097 1959 3097 
z
M 1959 3584 
Q 2709 3584 3137 3096 
Q 3566 2609 3566 1747 
Q 3566 888 3137 398 
Q 2709 -91 1959 -91 
Q 1206 -91 779 398 
Q 353 888 353 1747 
Q 353 2609 779 3096 
Q 1206 3584 1959 3584 
z
" transform="scale(0.015625)"/>
        <path id="DejaVuSans-74" d="M 1172 4494 
L 1172 3500 
L 2356 3500 
L 2356 3053 
L 1172 3053 
L 1172 1153 
Q 1172 725 1289 603 
Q 1406 481 1766 481 
L 2356 481 
L 2356 0 
L 1766 0 
Q 1100 0 847 248 
Q 594 497 594 1153 
L 594 3053 
L 172 3053 
L 172 3500 
L 594 3500 
L 594 4494 
L 1172 4494 
z
" transform="scale(0.015625)"/>
        <path id="DejaVuSans-6e" d="M 3513 2113 
L 3513 0 
L 2938 0 
L 2938 2094 
Q 2938 2591 2744 2837 
Q 2550 3084 2163 3084 
Q 1697 3084 1428 2787 
Q 1159 2491 1159 1978 
L 1159 0 
L 581 0 
L 581 3500 
L 1159 3500 
L 1159 2956 
Q 1366 3272 1645 3428 
Q 1925 3584 2291 3584 
Q 2894 3584 3203 3211 
Q 3513 2838 3513 2113 
z
" transform="scale(0.015625)"/>
       </defs>
       <use xlink:href="#DejaVuSans-70"/>
       <use xlink:href="#DejaVuSans-72" transform="translate(63.476562 0)"/>
       <use xlink:href="#DejaVuSans-6f" transform="translate(102.339844 0)"/>
       <use xlink:href="#DejaVuSans-74" transform="translate(163.521484 0)"/>
       <use xlink:href="#DejaVuSans-74" transform="translate(202.730469 0)"/>
       <use xlink:href="#DejaVuSans-35" transform="translate(241.939453 0)"/>
       <use xlink:href="#DejaVuSans-5f" transform="translate(305.5625 0)"/>
       <use xlink:href="#DejaVuSans-6d" transform="translate(355.5625 0)"/>
       <use xlink:href="#DejaVuSans-65" transform="translate(452.974609 0)"/>
       <use xlink:href="#DejaVuSans-61" transform="translate(514.498047 0)"/>
       <use xlink:href="#DejaVuSans-6e" transform="translate(575.777344 0)"/>
      </g>
     </g>
    </g>
    <g id="xtick_7">
     <g id="line2d_7">
      <g>
       <use xlink:href="#meedc7ae4a5" x="301.51653" y="272.387347" style="stroke: #000000; stroke-width: 0.8"/>
      </g>
     </g>
     <g id="text_7">
      <!-- esm2_150m_mean -->
      <g transform="translate(239.779148 344.34748) rotate(-45) scale(0.09 -0.09)">
       <defs>
        <path id="DejaVuSans-73" d="M 2834 3397 
L 2834 2853 
Q 2591 2978 2328 3040 
Q 2066 3103 1784 3103 
Q 1356 3103 1142 2972 
Q 928 2841 928 2578 
Q 928 2378 1081 2264 
Q 1234 2150 1697 2047 
L 1894 2003 
Q 2506 1872 2764 1633 
Q 3022 1394 3022 966 
Q 3022 478 2636 193 
Q 2250 -91 1575 -91 
Q 1294 -91 989 -36 
Q 684 19 347 128 
L 347 722 
Q 666 556 975 473 
Q 1284 391 1588 391 
Q 1994 391 2212 530 
Q 2431 669 2431 922 
Q 2431 1156 2273 1281 
Q 2116 1406 1581 1522 
L 1381 1569 
Q 847 1681 609 1914 
Q 372 2147 372 2553 
Q 372 3047 722 3315 
Q 1072 3584 1716 3584 
Q 2034 3584 2315 3537 
Q 2597 3491 2834 3397 
z
" transform="scale(0.015625)"/>
       </defs>
       <use xlink:href="#DejaVuSans-65"/>
       <use xlink:href="#DejaVuSans-73" transform="translate(61.523438 0)"/>
       <use xlink:href="#DejaVuSans-6d" transform="translate(113.623047 0)"/>
       <use xlink:href="#DejaVuSans-32" transform="translate(211.035156 0)"/>
       <use xlink:href="#DejaVuSans-5f" transform="translate(274.658203 0)"/>
       <use xlink:href="#DejaVuSans-31" transform="translate(324.658203 0)"/>
       <use xlink:href="#DejaVuSans-35" transform="translate(388.28125 0)"/>
       <use xlink:href="#DejaVuSans-30" transform="translate(451.904297 0)"/>
       <use xlink:href="#DejaVuSans-6d" transform="translate(515.527344 0)"/>
       <use xlink:href="#DejaVuSans-5f" transform="translate(612.939453 0)"/>
       <use xlink:href="#DejaVuSans-6d" transform="translate(662.939453 0)"/>
       <use xlink:href="#DejaVuSans-65" transform="translate(760.351562 0)"/>
       <use xlink:href="#DejaVuSans-61" transform="translate(821.875 0)"/>
       <use xlink:href="#DejaVuSans-6e" transform="translate(883.154297 0)"/>
      </g>
     </g>
    </g>
    <g id="xtick_8">
     <g id="line2d_8">
      <g>
       <use xlink:href="#meedc7ae4a5" x="337.939683" y="272.387347" style="stroke: #000000; stroke-width: 0.8"/>
      </g>
     </g>
     <g id="text_8">
      <!-- esm2_650m_seg4 -->
      <g transform="translate(278.929854 341.619926) rotate(-45) scale(0.09 -0.09)">
       <defs>
        <path id="DejaVuSans-36" d="M 2113 2584 
Q 1688 2584 1439 2293 
Q 1191 2003 1191 1497 
Q 1191 994 1439 701 
Q 1688 409 2113 409 
Q 2538 409 2786 701 
Q 3034 994 3034 1497 
Q 3034 2003 2786 2293 
Q 2538 2584 2113 2584 
z
M 3366 4563 
L 3366 3988 
Q 3128 4100 2886 4159 
Q 2644 4219 2406 4219 
Q 1781 4219 1451 3797 
Q 1122 3375 1075 2522 
Q 1259 2794 1537 2939 
Q 1816 3084 2150 3084 
Q 2853 3084 3261 2657 
Q 3669 2231 3669 1497 
Q 3669 778 3244 343 
Q 2819 -91 2113 -91 
Q 1303 -91 875 529 
Q 447 1150 447 2328 
Q 447 3434 972 4092 
Q 1497 4750 2381 4750 
Q 2619 4750 2861 4703 
Q 3103 4656 3366 4563 
z
" transform="scale(0.015625)"/>
        <path id="DejaVuSans-67" d="M 2906 1791 
Q 2906 2416 2648 2759 
Q 2391 3103 1925 3103 
Q 1463 3103 1205 2759 
Q 947 2416 947 1791 
Q 947 1169 1205 825 
Q 1463 481 1925 481 
Q 2391 481 2648 825 
Q 2906 1169 2906 1791 
z
M 3481 434 
Q 3481 -459 3084 -895 
Q 2688 -1331 1869 -1331 
Q 1566 -1331 1297 -1286 
Q 1028 -1241 775 -1147 
L 775 -588 
Q 1028 -725 1275 -790 
Q 1522 -856 1778 -856 
Q 2344 -856 2625 -561 
Q 2906 -266 2906 331 
L 2906 616 
Q 2728 306 2450 153 
Q 2172 0 1784 0 
Q 1141 0 747 490 
Q 353 981 353 1791 
Q 353 2603 747 3093 
Q 1141 3584 1784 3584 
Q 2172 3584 2450 3431 
Q 2728 3278 2906 2969 
L 2906 3500 
L 3481 3500 
L 3481 434 
z
" transform="scale(0.015625)"/>
       </defs>
       <use xlink:href="#DejaVuSans-65"/>
       <use xlink:href="#DejaVuSans-73" transform="translate(61.523438 0)"/>
       <use xlink:href="#DejaVuSans-6d" transform="translate(113.623047 0)"/>
       <use xlink:href="#DejaVuSans-32" transform="translate(211.035156 0)"/>
       <use xlink:href="#DejaVuSans-5f" transform="translate(274.658203 0)"/>
       <use xlink:href="#DejaVuSans-36" transform="translate(324.658203 0)"/>
       <use xlink:href="#DejaVuSans-35" transform="translate(388.28125 0)"/>
       <use xlink:href="#DejaVuSans-30" transform="translate(451.904297 0)"/>
       <use xlink:href="#DejaVuSans-6d" transform="translate(515.527344 0)"/>
       <use xlink:href="#DejaVuSans-5f" transform="translate(612.939453 0)"/>
       <use xlink:href="#DejaVuSans-73" transform="translate(662.939453 0)"/>
       <use xlink:href="#DejaVuSans-65" transform="translate(715.039062 0)"/>
       <use xlink:href="#DejaVuSans-67" transform="translate(776.5625 0)"/>
       <use xlink:href="#DejaVuSans-34" transform="translate(840.039062 0)"/>
      </g>
     </g>
    </g>
    <g id="xtick_9">
     <g id="line2d_9">
      <g>
       <use xlink:href="#meedc7ae4a5" x="374.362836" y="272.387347" style="stroke: #000000; stroke-width: 0.8"/>
      </g>
     </g>
     <g id="text_9">
      <!-- esm2_650m_seg16 -->
      <g transform="translate(311.303937 345.668996) rotate(-45) scale(0.09 -0.09)">
       <use xlink:href="#DejaVuSans-65"/>
       <use xlink:href="#DejaVuSans-73" transform="translate(61.523438 0)"/>
       <use xlink:href="#DejaVuSans-6d" transform="translate(113.623047 0)"/>
       <use xlink:href="#DejaVuSans-32" transform="translate(211.035156 0)"/>
       <use xlink:href="#DejaVuSans-5f" transform="translate(274.658203 0)"/>
       <use xlink:href="#DejaVuSans-36" transform="translate(324.658203 0)"/>
       <use xlink:href="#DejaVuSans-35" transform="translate(388.28125 0)"/>
       <use xlink:href="#DejaVuSans-30" transform="translate(451.904297 0)"/>
       <use xlink:href="#DejaVuSans-6d" transform="translate(515.527344 0)"/>
       <use xlink:href="#DejaVuSans-5f" transform="translate(612.939453 0)"/>
       <use xlink:href="#DejaVuSans-73" transform="translate(662.939453 0)"/>
       <use xlink:href="#DejaVuSans-65" transform="translate(715.039062 0)"/>
       <use xlink:href="#DejaVuSans-67" transform="translate(776.5625 0)"/>
       <use xlink:href="#DejaVuSans-31" transform="translate(840.039062 0)"/>
       <use xlink:href="#DejaVuSans-36" transform="translate(903.662109 0)"/>
      </g>
     </g>
    </g>
    <g id="xtick_10">
     <g id="line2d_10">
      <g>
       <use xlink:href="#meedc7ae4a5" x="410.785989" y="272.387347" style="stroke: #000000; stroke-width: 0.8"/>
      </g>
     </g>
     <g id="text_10">
      <!-- esm2_650m_seg8 -->
      <g transform="translate(351.77616 341.619926) rotate(-45) scale(0.09 -0.09)">
       <use xlink:href="#DejaVuSans-65"/>
       <use xlink:href="#DejaVuSans-73" transform="translate(61.523438 0)"/>
       <use xlink:href="#DejaVuSans-6d" transform="translate(113.623047 0)"/>
       <use xlink:href="#DejaVuSans-32" transform="translate(211.035156 0)"/>
       <use xlink:href="#DejaVuSans-5f" transform="translate(274.658203 0)"/>
       <use xlink:href="#DejaVuSans-36" transform="translate(324.658203 0)"/>
       <use xlink:href="#DejaVuSans-35" transform="translate(388.28125 0)"/>
       <use xlink:href="#DejaVuSans-30" transform="translate(451.904297 0)"/>
       <use xlink:href="#DejaVuSans-6d" transform="translate(515.527344 0)"/>
       <use xlink:href="#DejaVuSans-5f" transform="translate(612.939453 0)"/>
       <use xlink:href="#DejaVuSans-73" transform="translate(662.939453 0)"/>
       <use xlink:href="#DejaVuSans-65" transform="translate(715.039062 0)"/>
       <use xlink:href="#DejaVuSans-67" transform="translate(776.5625 0)"/>
       <use xlink:href="#DejaVuSans-38" transform="translate(840.039062 0)"/>
      </g>
     </g>
    </g>
    <g id="xtick_11">
     <g id="line2d_11">
      <g>
       <use xlink:href="#meedc7ae4a5" x="447.209142" y="272.387347" style="stroke: #000000; stroke-width: 0.8"/>
      </g>
     </g>
     <g id="text_11">
      <!-- esm2_650m_mean -->
      <g transform="translate(385.47176 344.34748) rotate(-45) scale(0.09 -0.09)">
       <use xlink:href="#DejaVuSans-65"/>
       <use xlink:href="#DejaVuSans-73" transform="translate(61.523438 0)"/>
       <use xlink:href="#DejaVuSans-6d" transform="translate(113.623047 0)"/>
       <use xlink:href="#DejaVuSans-32" transform="translate(211.035156 0)"/>
       <use xlink:href="#DejaVuSans-5f" transform="translate(274.658203 0)"/>
       <use xlink:href="#DejaVuSans-36" transform="translate(324.658203 0)"/>
       <use xlink:href="#DejaVuSans-35" transform="translate(388.28125 0)"/>
       <use xlink:href="#DejaVuSans-30" transform="translate(451.904297 0)"/>
       <use xlink:href="#DejaVuSans-6d" transform="translate(515.527344 0)"/>
       <use xlink:href="#DejaVuSans-5f" transform="translate(612.939453 0)"/>
       <use xlink:href="#DejaVuSans-6d" transform="translate(662.939453 0)"/>
       <use xlink:href="#DejaVuSans-65" transform="translate(760.351562 0)"/>
       <use xlink:href="#DejaVuSans-61" transform="translate(821.875 0)"/>
       <use xlink:href="#DejaVuSans-6e" transform="translate(883.154297 0)"/>
      </g>
     </g>
    </g>
    <g id="xtick_12">
     <g id="line2d_12">
      <g>
       <use xlink:href="#meedc7ae4a5" x="483.632295" y="272.387347" style="stroke: #000000; stroke-width: 0.8"/>
      </g>
     </g>
     <g id="text_12">
      <!-- esm2_3b_mean -->
      <g transform="translate(432.151828 334.202928) rotate(-45) scale(0.09 -0.09)">
       <defs>
        <path id="DejaVuSans-62" d="M 3116 1747 
Q 3116 2381 2855 2742 
Q 2594 3103 2138 3103 
Q 1681 3103 1420 2742 
Q 1159 2381 1159 1747 
Q 1159 1113 1420 752 
Q 1681 391 2138 391 
Q 2594 391 2855 752 
Q 3116 1113 3116 1747 
z
M 1159 2969 
Q 1341 3281 1617 3432 
Q 1894 3584 2278 3584 
Q 2916 3584 3314 3078 
Q 3713 2572 3713 1747 
Q 3713 922 3314 415 
Q 2916 -91 2278 -91 
Q 1894 -91 1617 61 
Q 1341 213 1159 525 
L 1159 0 
L 581 0 
L 581 4863 
L 1159 4863 
L 1159 2969 
z
" transform="scale(0.015625)"/>
       </defs>
       <use xlink:href="#DejaVuSans-65"/>
       <use xlink:href="#DejaVuSans-73" transform="translate(61.523438 0)"/>
       <use xlink:href="#DejaVuSans-6d" transform="translate(113.623047 0)"/>
       <use xlink:href="#DejaVuSans-32" transform="translate(211.035156 0)"/>
       <use xlink:href="#DejaVuSans-5f" transform="translate(274.658203 0)"/>
       <use xlink:href="#DejaVuSans-33" transform="translate(324.658203 0)"/>
       <use xlink:href="#DejaVuSans-62" transform="translate(388.28125 0)"/>
       <use xlink:href="#DejaVuSans-5f" transform="translate(451.757812 0)"/>
       <use xlink:href="#DejaVuSans-6d" transform="translate(501.757812 0)"/>
       <use xlink:href="#DejaVuSans-65" transform="translate(599.169922 0)"/>
       <use xlink:href="#DejaVuSans-61" transform="translate(660.693359 0)"/>
       <use xlink:href="#DejaVuSans-6e" transform="translate(721.972656 0)"/>
      </g>
     </g>
    </g>
   </g>
   <g id="matplotlib.axis_2">
    <g id="ytick_1">
     <g id="line2d_13">
      <path d="M 47.72 261.647009 
L 518.889907 261.647009 
" clip-path="url(#p5c1499b2d2)" style="fill: none; stroke: #b0b0b0; stroke-opacity: 0.3; stroke-width: 0.8; stroke-linecap: square"/>
     </g>
     <g id="line2d_14">
      <defs>
       <path id="mafc72c9059" d="M 0 0 
L -3.5 0 
" style="stroke: #000000; stroke-width: 0.8"/>
      </defs>
      <g>
       <use xlink:href="#mafc72c9059" x="47.72" y="261.647009" style="stroke: #000000; stroke-width: 0.8"/>
      </g>
     </g>
     <g id="text_13">
      <!-- 0.0 -->
      <g transform="translate(24.816875 265.446228) scale(0.1 -0.1)">
       <defs>
        <path id="DejaVuSans-2e" d="M 684 794 
L 1344 794 
L 1344 0 
L 684 0 
L 684 794 
z
" transform="scale(0.015625)"/>
       </defs>
       <use xlink:href="#DejaVuSans-30"/>
       <use xlink:href="#DejaVuSans-2e" transform="translate(63.623047 0)"/>
       <use xlink:href="#DejaVuSans-30" transform="translate(95.410156 0)"/>
      </g>
     </g>
    </g>
    <g id="ytick_2">
     <g id="line2d_15">
      <path d="M 47.72 235.482971 
L 518.889907 235.482971 
" clip-path="url(#p5c1499b2d2)" style="fill: none; stroke: #b0b0b0; stroke-opacity: 0.3; stroke-width: 0.8; stroke-linecap: square"/>
     </g>
     <g id="line2d_16">
      <g>
       <use xlink:href="#mafc72c9059" x="47.72" y="235.482971" style="stroke: #000000; stroke-width: 0.8"/>
      </g>
     </g>
     <g id="text_14">
      <!-- 0.1 -->
      <g transform="translate(24.816875 239.282189) scale(0.1 -0.1)">
       <use xlink:href="#DejaVuSans-30"/>
       <use xlink:href="#DejaVuSans-2e" transform="translate(63.623047 0)"/>
       <use xlink:href="#DejaVuSans-31" transform="translate(95.410156 0)"/>
      </g>
     </g>
    </g>
    <g id="ytick_3">
     <g id="line2d_17">
      <path d="M 47.72 209.318932 
L 518.889907 209.318932 
" clip-path="url(#p5c1499b2d2)" style="fill: none; stroke: #b0b0b0; stroke-opacity: 0.3; stroke-width: 0.8; stroke-linecap: square"/>
     </g>
     <g id="line2d_18">
      <g>
       <use xlink:href="#mafc72c9059" x="47.72" y="209.318932" style="stroke: #000000; stroke-width: 0.8"/>
      </g>
     </g>
     <g id="text_15">
      <!-- 0.2 -->
      <g transform="translate(24.816875 213.11815) scale(0.1 -0.1)">
       <use xlink:href="#DejaVuSans-30"/>
       <use xlink:href="#DejaVuSans-2e" transform="translate(63.623047 0)"/>
       <use xlink:href="#DejaVuSans-32" transform="translate(95.410156 0)"/>
      </g>
     </g>
    </g>
    <g id="ytick_4">
     <g id="line2d_19">
      <path d="M 47.72 183.154893 
L 518.889907 183.154893 
" clip-path="url(#p5c1499b2d2)" style="fill: none; stroke: #b0b0b0; stroke-opacity: 0.3; stroke-width: 0.8; stroke-linecap: square"/>
     </g>
     <g id="line2d_20">
      <g>
       <use xlink:href="#mafc72c9059" x="47.72" y="183.154893" style="stroke: #000000; stroke-width: 0.8"/>
      </g>
     </g>
     <g id="text_16">
      <!-- 0.3 -->
      <g transform="translate(24.816875 186.954111) scale(0.1 -0.1)">
       <use xlink:href="#DejaVuSans-30"/>
       <use xlink:href="#DejaVuSans-2e" transform="translate(63.623047 0)"/>
       <use xlink:href="#DejaVuSans-33" transform="translate(95.410156 0)"/>
      </g>
     </g>
    </g>
    <g id="ytick_5">
     <g id="line2d_21">
      <path d="M 47.72 156.990854 
L 518.889907 156.990854 
" clip-path="url(#p5c1499b2d2)" style="fill: none; stroke: #b0b0b0; stroke-opacity: 0.3; stroke-width: 0.8; stroke-linecap: square"/>
     </g>
     <g id="line2d_22">
      <g>
       <use xlink:href="#mafc72c9059" x="47.72" y="156.990854" style="stroke: #000000; stroke-width: 0.8"/>
      </g>
     </g>
     <g id="text_17">
      <!-- 0.4 -->
      <g transform="translate(24.816875 160.790072) scale(0.1 -0.1)">
       <use xlink:href="#DejaVuSans-30"/>
       <use xlink:href="#DejaVuSans-2e" transform="translate(63.623047 0)"/>
       <use xlink:href="#DejaVuSans-34" transform="translate(95.410156 0)"/>
      </g>
     </g>
    </g>
    <g id="ytick_6">
     <g id="line2d_23">
      <path d="M 47.72 130.826815 
L 518.889907 130.826815 
" clip-path="url(#p5c1499b2d2)" style="fill: none; stroke: #b0b0b0; stroke-opacity: 0.3; stroke-width: 0.8; stroke-linecap: square"/>
     </g>
     <g id="line2d_24">
      <g>
       <use xlink:href="#mafc72c9059" x="47.72" y="130.826815" style="stroke: #000000; stroke-width: 0.8"/>
      </g>
     </g>
     <g id="text_18">
      <!-- 0.5 -->
      <g transform="translate(24.816875 134.626033) scale(0.1 -0.1)">
       <use xlink:href="#DejaVuSans-30"/>
       <use xlink:href="#DejaVuSans-2e" transform="translate(63.623047 0)"/>
       <use xlink:href="#DejaVuSans-35" transform="translate(95.410156 0)"/>
      </g>
     </g>
    </g>
    <g id="ytick_7">
     <g id="line2d_25">
      <path d="M 47.72 104.662776 
L 518.889907 104.662776 
" clip-path="url(#p5c1499b2d2)" style="fill: none; stroke: #b0b0b0; stroke-opacity: 0.3; stroke-width: 0.8; stroke-linecap: square"/>
     </g>
     <g id="line2d_26">
      <g>
       <use xlink:href="#mafc72c9059" x="47.72" y="104.662776" style="stroke: #000000; stroke-width: 0.8"/>
      </g>
     </g>
     <g id="text_19">
      <!-- 0.6 -->
      <g transform="translate(24.816875 108.461994) scale(0.1 -0.1)">
       <use xlink:href="#DejaVuSans-30"/>
       <use xlink:href="#DejaVuSans-2e" transform="translate(63.623047 0)"/>
       <use xlink:href="#DejaVuSans-36" transform="translate(95.410156 0)"/>
      </g>
     </g>
    </g>
    <g id="ytick_8">
     <g id="line2d_27">
      <path d="M 47.72 78.498737 
L 518.889907 78.498737 
" clip-path="url(#p5c1499b2d2)" style="fill: none; stroke: #b0b0b0; stroke-opacity: 0.3; stroke-width: 0.8; stroke-linecap: square"/>
     </g>
     <g id="line2d_28">
      <g>
       <use xlink:href="#mafc72c9059" x="47.72" y="78.498737" style="stroke: #000000; stroke-width: 0.8"/>
      </g>
     </g>
     <g id="text_20">
      <!-- 0.7 -->
      <g transform="translate(24.816875 82.297955) scale(0.1 -0.1)">
       <defs>
        <path id="DejaVuSans-37" d="M 525 4666 
L 3525 4666 
L 3525 4397 
L 1831 0 
L 1172 0 
L 2766 4134 
L 525 4134 
L 525 4666 
z
" transform="scale(0.015625)"/>
       </defs>
       <use xlink:href="#DejaVuSans-30"/>
       <use xlink:href="#DejaVuSans-2e" transform="translate(63.623047 0)"/>
       <use xlink:href="#DejaVuSans-37" transform="translate(95.410156 0)"/>
      </g>
     </g>
    </g>
    <g id="ytick_9">
     <g id="line2d_29">
      <path d="M 47.72 52.334698 
L 518.889907 52.334698 
" clip-path="url(#p5c1499b2d2)" style="fill: none; stroke: #b0b0b0; stroke-opacity: 0.3; stroke-width: 0.8; stroke-linecap: square"/>
     </g>
     <g id="line2d_30">
      <g>
       <use xlink:href="#mafc72c9059" x="47.72" y="52.334698" style="stroke: #000000; stroke-width: 0.8"/>
      </g>
     </g>
     <g id="text_21">
      <!-- 0.8 -->
      <g transform="translate(24.816875 56.133916) scale(0.1 -0.1)">
       <use xlink:href="#DejaVuSans-30"/>
       <use xlink:href="#DejaVuSans-2e" transform="translate(63.623047 0)"/>
       <use xlink:href="#DejaVuSans-38" transform="translate(95.410156 0)"/>
      </g>
     </g>
    </g>
    <g id="text_22">
     <!-- Cohen's d  (effect size of class separation) -->
     <g transform="translate(18.737188 263.189642) rotate(-90) scale(0.1 -0.1)">
      <defs>
       <path id="DejaVuSans-43" d="M 4122 4306 
L 4122 3641 
Q 3803 3938 3442 4084 
Q 3081 4231 2675 4231 
Q 1875 4231 1450 3742 
Q 1025 3253 1025 2328 
Q 1025 1406 1450 917 
Q 1875 428 2675 428 
Q 3081 428 3442 575 
Q 3803 722 4122 1019 
L 4122 359 
Q 3791 134 3420 21 
Q 3050 -91 2638 -91 
Q 1578 -91 968 557 
Q 359 1206 359 2328 
Q 359 3453 968 4101 
Q 1578 4750 2638 4750 
Q 3056 4750 3426 4639 
Q 3797 4528 4122 4306 
z
" transform="scale(0.015625)"/>
       <path id="DejaVuSans-27" d="M 1147 4666 
L 1147 2931 
L 616 2931 
L 616 4666 
L 1147 4666 
z
" transform="scale(0.015625)"/>
       <path id="DejaVuSans-20" transform="scale(0.015625)"/>
       <path id="DejaVuSans-64" d="M 2906 2969 
L 2906 4863 
L 3481 4863 
L 3481 0 
L 2906 0 
L 2906 525 
Q 2725 213 2448 61 
Q 2172 -91 1784 -91 
Q 1150 -91 751 415 
Q 353 922 353 1747 
Q 353 2572 751 3078 
Q 1150 3584 1784 3584 
Q 2172 3584 2448 3432 
Q 2725 3281 2906 2969 
z
M 947 1747 
Q 947 1113 1208 752 
Q 1469 391 1925 391 
Q 2381 391 2643 752 
Q 2906 1113 2906 1747 
Q 2906 2381 2643 2742 
Q 2381 3103 1925 3103 
Q 1469 3103 1208 2742 
Q 947 2381 947 1747 
z
" transform="scale(0.015625)"/>
       <path id="DejaVuSans-28" d="M 1984 4856 
Q 1566 4138 1362 3434 
Q 1159 2731 1159 2009 
Q 1159 1288 1364 580 
Q 1569 -128 1984 -844 
L 1484 -844 
Q 1016 -109 783 600 
Q 550 1309 550 2009 
Q 550 2706 781 3412 
Q 1013 4119 1484 4856 
L 1984 4856 
z
" transform="scale(0.015625)"/>
       <path id="DejaVuSans-66" d="M 2375 4863 
L 2375 4384 
L 1825 4384 
Q 1516 4384 1395 4259 
Q 1275 4134 1275 3809 
L 1275 3500 
L 2222 3500 
L 2222 3053 
L 1275 3053 
L 1275 0 
L 697 0 
L 697 3053 
L 147 3053 
L 147 3500 
L 697 3500 
L 697 3744 
Q 697 4328 969 4595 
Q 1241 4863 1831 4863 
L 2375 4863 
z
" transform="scale(0.015625)"/>
       <path id="DejaVuSans-63" d="M 3122 3366 
L 3122 2828 
Q 2878 2963 2633 3030 
Q 2388 3097 2138 3097 
Q 1578 3097 1268 2742 
Q 959 2388 959 1747 
Q 959 1106 1268 751 
Q 1578 397 2138 397 
Q 2388 397 2633 464 
Q 2878 531 3122 666 
L 3122 134 
Q 2881 22 2623 -34 
Q 2366 -91 2075 -91 
Q 1284 -91 818 406 
Q 353 903 353 1747 
Q 353 2603 823 3093 
Q 1294 3584 2113 3584 
Q 2378 3584 2631 3529 
Q 2884 3475 3122 3366 
z
" transform="scale(0.015625)"/>
       <path id="DejaVuSans-7a" d="M 353 3500 
L 3084 3500 
L 3084 2975 
L 922 459 
L 3084 459 
L 3084 0 
L 275 0 
L 275 525 
L 2438 3041 
L 353 3041 
L 353 3500 
z
" transform="scale(0.015625)"/>
       <path id="DejaVuSans-29" d="M 513 4856 
L 1013 4856 
Q 1481 4119 1714 3412 
Q 1947 2706 1947 2009 
Q 1947 1309 1714 600 
Q 1481 -109 1013 -844 
L 513 -844 
Q 928 -128 1133 580 
Q 1338 1288 1338 2009 
Q 1338 2731 1133 3434 
Q 928 4138 513 4856 
z
" transform="scale(0.015625)"/>
      </defs>
      <use xlink:href="#DejaVuSans-43"/>
      <use xlink:href="#DejaVuSans-6f" transform="translate(69.824219 0)"/>
      <use xlink:href="#DejaVuSans-68" transform="translate(131.005859 0)"/>
      <use xlink:href="#DejaVuSans-65" transform="translate(194.384766 0)"/>
      <use xlink:href="#DejaVuSans-6e" transform="translate(255.908203 0)"/>
      <use xlink:href="#DejaVuSans-27" transform="translate(319.287109 0)"/>
      <use xlink:href="#DejaVuSans-73" transform="translate(346.777344 0)"/>
      <use xlink:href="#DejaVuSans-20" transform="translate(398.876953 0)"/>
      <use xlink:href="#DejaVuSans-64" transform="translate(430.664062 0)"/>
      <use xlink:href="#DejaVuSans-20" transform="translate(494.140625 0)"/>
      <use xlink:href="#DejaVuSans-20" transform="translate(525.927734 0)"/>
      <use xlink:href="#DejaVuSans-28" transform="translate(557.714844 0)"/>
      <use xlink:href="#DejaVuSans-65" transform="translate(596.728516 0)"/>
      <use xlink:href="#DejaVuSans-66" transform="translate(658.251953 0)"/>
      <use xlink:href="#DejaVuSans-66" transform="translate(693.457031 0)"/>
      <use xlink:href="#DejaVuSans-65" transform="translate(728.662109 0)"/>
      <use xlink:href="#DejaVuSans-63" transform="translate(790.185547 0)"/>
      <use xlink:href="#DejaVuSans-74" transform="translate(845.166016 0)"/>
      <use xlink:href="#DejaVuSans-20" transform="translate(884.375 0)"/>
      <use xlink:href="#DejaVuSans-73" transform="translate(916.162109 0)"/>
      <use xlink:href="#DejaVuSans-69" transform="translate(968.261719 0)"/>
      <use xlink:href="#DejaVuSans-7a" transform="translate(996.044922 0)"/>
      <use xlink:href="#DejaVuSans-65" transform="translate(1048.535156 0)"/>
      <use xlink:href="#DejaVuSans-20" transform="translate(1110.058594 0)"/>
      <use xlink:href="#DejaVuSans-6f" transform="translate(1141.845703 0)"/>
      <use xlink:href="#DejaVuSans-66" transform="translate(1203.027344 0)"/>
      <use xlink:href="#DejaVuSans-20" transform="translate(1238.232422 0)"/>
      <use xlink:href="#DejaVuSans-63" transform="translate(1270.019531 0)"/>
      <use xlink:href="#DejaVuSans-6c" transform="translate(1325 0)"/>
      <use xlink:href="#DejaVuSans-61" transform="translate(1352.783203 0)"/>
      <use xlink:href="#DejaVuSans-73" transform="translate(1414.0625 0)"/>
      <use xlink:href="#DejaVuSans-73" transform="translate(1466.162109 0)"/>
      <use xlink:href="#DejaVuSans-20" transform="translate(1518.261719 0)"/>
      <use xlink:href="#DejaVuSans-73" transform="translate(1550.048828 0)"/>
      <use xlink:href="#DejaVuSans-65" transform="translate(1602.148438 0)"/>
      <use xlink:href="#DejaVuSans-70" transform="translate(1663.671875 0)"/>
      <use xlink:href="#DejaVuSans-61" transform="translate(1727.148438 0)"/>
      <use xlink:href="#DejaVuSans-72" transform="translate(1788.427734 0)"/>
      <use xlink:href="#DejaVuSans-61" transform="translate(1829.541016 0)"/>
      <use xlink:href="#DejaVuSans-74" transform="translate(1890.820312 0)"/>
      <use xlink:href="#DejaVuSans-69" transform="translate(1930.029297 0)"/>
      <use xlink:href="#DejaVuSans-6f" transform="translate(1957.8125 0)"/>
      <use xlink:href="#DejaVuSans-6e" transform="translate(2018.994141 0)"/>
      <use xlink:href="#DejaVuSans-29" transform="translate(2082.373047 0)"/>
     </g>
    </g>
   </g>
   <g id="line2d_31">
    <path d="M 47.72 261.647009 
L 518.889907 261.647009 
" clip-path="url(#p5c1499b2d2)" style="fill: none; stroke: #000000; stroke-width: 0.5; stroke-linecap: square"/>
   </g>
   <g id="line2d_32">
    <path d="M 47.72 209.318932 
L 518.889907 209.318932 
" clip-path="url(#p5c1499b2d2)" style="fill: none; stroke-dasharray: 1.85,0.8; stroke-dashoffset: 0; stroke: #808080; stroke-opacity: 0.5; stroke-width: 0.5"/>
   </g>
   <g id="line2d_33">
    <path d="M 47.72 130.826815 
L 518.889907 130.826815 
" clip-path="url(#p5c1499b2d2)" style="fill: none; stroke-dasharray: 1.85,0.8; stroke-dashoffset: 0; stroke: #808080; stroke-opacity: 0.5; stroke-width: 0.5"/>
   </g>
   <g id="line2d_34">
    <path d="M 47.72 52.334698 
L 518.889907 52.334698 
" clip-path="url(#p5c1499b2d2)" style="fill: none; stroke-dasharray: 1.85,0.8; stroke-dashoffset: 0; stroke: #808080; stroke-opacity: 0.5; stroke-width: 0.5"/>
   </g>
   <g id="patch_27">
    <path d="M 47.72 272.387347 
L 47.72 41.856 
" style="fill: none; stroke: #000000; stroke-width: 0.8; stroke-linejoin: miter; stroke-linecap: square"/>
   </g>
   <g id="patch_28">
    <path d="M 518.889907 272.387347 
L 518.889907 41.856 
" style="fill: none; stroke: #000000; stroke-width: 0.8; stroke-linejoin: miter; stroke-linecap: square"/>
   </g>
   <g id="patch_29">
    <path d="M 47.72 272.387347 
L 518.889907 272.387347 
" style="fill: none; stroke: #000000; stroke-width: 0.8; stroke-linejoin: miter; stroke-linecap: square"/>
   </g>
   <g id="patch_30">
    <path d="M 47.72 41.856 
L 518.889907 41.856 
" style="fill: none; stroke: #000000; stroke-width: 0.8; stroke-linejoin: miter; stroke-linecap: square"/>
   </g>
   <g id="text_23">
    <!--   small (d=0.2) -->
    <g style="fill: #808080" transform="translate(501.843872 207.86315) scale(0.07 -0.07)">
     <defs>
      <path id="DejaVuSans-3d" d="M 678 2906 
L 4684 2906 
L 4684 2381 
L 678 2381 
L 678 2906 
z
M 678 1631 
L 4684 1631 
L 4684 1100 
L 678 1100 
L 678 1631 
z
" transform="scale(0.015625)"/>
     </defs>
     <use xlink:href="#DejaVuSans-20"/>
     <use xlink:href="#DejaVuSans-20" transform="translate(31.787109 0)"/>
     <use xlink:href="#DejaVuSans-73" transform="translate(63.574219 0)"/>
     <use xlink:href="#DejaVuSans-6d" transform="translate(115.673828 0)"/>
     <use xlink:href="#DejaVuSans-61" transform="translate(213.085938 0)"/>
     <use xlink:href="#DejaVuSans-6c" transform="translate(274.365234 0)"/>
     <use xlink:href="#DejaVuSans-6c" transform="translate(302.148438 0)"/>
     <use xlink:href="#DejaVuSans-20" transform="translate(329.931641 0)"/>
     <use xlink:href="#DejaVuSans-28" transform="translate(361.71875 0)"/>
     <use xlink:href="#DejaVuSans-64" transform="translate(400.732422 0)"/>
     <use xlink:href="#DejaVuSans-3d" transform="translate(464.208984 0)"/>
     <use xlink:href="#DejaVuSans-30" transform="translate(547.998047 0)"/>
     <use xlink:href="#DejaVuSans-2e" transform="translate(611.621094 0)"/>
     <use xlink:href="#DejaVuSans-32" transform="translate(643.408203 0)"/>
     <use xlink:href="#DejaVuSans-29" transform="translate(707.03125 0)"/>
    </g>
   </g>
   <g id="text_24">
    <!--   medium (d=0.5) -->
    <g style="fill: #808080" transform="translate(501.843872 129.371033) scale(0.07 -0.07)">
     <use xlink:href="#DejaVuSans-20"/>
     <use xlink:href="#DejaVuSans-20" transform="translate(31.787109 0)"/>
     <use xlink:href="#DejaVuSans-6d" transform="translate(63.574219 0)"/>
     <use xlink:href="#DejaVuSans-65" transform="translate(160.986328 0)"/>
     <use xlink:href="#DejaVuSans-64" transform="translate(222.509766 0)"/>
     <use xlink:href="#DejaVuSans-69" transform="translate(285.986328 0)"/>
     <use xlink:href="#DejaVuSans-75" transform="translate(313.769531 0)"/>
     <use xlink:href="#DejaVuSans-6d" transform="translate(377.148438 0)"/>
     <use xlink:href="#DejaVuSans-20" transform="translate(474.560547 0)"/>
     <use xlink:href="#DejaVuSans-28" transform="translate(506.347656 0)"/>
     <use xlink:href="#DejaVuSans-64" transform="translate(545.361328 0)"/>
     <use xlink:href="#DejaVuSans-3d" transform="translate(608.837891 0)"/>
     <use xlink:href="#DejaVuSans-30" transform="translate(692.626953 0)"/>
     <use xlink:href="#DejaVuSans-2e" transform="translate(756.25 0)"/>
     <use xlink:href="#DejaVuSans-35" transform="translate(788.037109 0)"/>
     <use xlink:href="#DejaVuSans-29" transform="translate(851.660156 0)"/>
    </g>
   </g>
   <g id="text_25">
    <!--   large (d=0.8) -->
    <g style="fill: #808080" transform="translate(501.843872 50.878916) scale(0.07 -0.07)">
     <use xlink:href="#DejaVuSans-20"/>
     <use xlink:href="#DejaVuSans-20" transform="translate(31.787109 0)"/>
     <use xlink:href="#DejaVuSans-6c" transform="translate(63.574219 0)"/>
     <use xlink:href="#DejaVuSans-61" transform="translate(91.357422 0)"/>
     <use xlink:href="#DejaVuSans-72" transform="translate(152.636719 0)"/>
     <use xlink:href="#DejaVuSans-67" transform="translate(192 0)"/>
     <use xlink:href="#DejaVuSans-65" transform="translate(255.476562 0)"/>
     <use xlink:href="#DejaVuSans-20" transform="translate(317 0)"/>
     <use xlink:href="#DejaVuSans-28" transform="translate(348.787109 0)"/>
     <use xlink:href="#DejaVuSans-64" transform="translate(387.800781 0)"/>
     <use xlink:href="#DejaVuSans-3d" transform="translate(451.277344 0)"/>
     <use xlink:href="#DejaVuSans-30" transform="translate(535.066406 0)"/>
     <use xlink:href="#DejaVuSans-2e" transform="translate(598.689453 0)"/>
     <use xlink:href="#DejaVuSans-38" transform="translate(630.476562 0)"/>
     <use xlink:href="#DejaVuSans-29" transform="translate(694.099609 0)"/>
    </g>
   </g>
   <g id="text_26">
    <!-- Standardized class-separation effect size by embedding -->
    <g transform="translate(114.971204 22.418625) scale(0.12 -0.12)">
     <defs>
      <path id="DejaVuSans-53" d="M 3425 4513 
L 3425 3897 
Q 3066 4069 2747 4153 
Q 2428 4238 2131 4238 
Q 1616 4238 1336 4038 
Q 1056 3838 1056 3469 
Q 1056 3159 1242 3001 
Q 1428 2844 1947 2747 
L 2328 2669 
Q 3034 2534 3370 2195 
Q 3706 1856 3706 1288 
Q 3706 609 3251 259 
Q 2797 -91 1919 -91 
Q 1588 -91 1214 -16 
Q 841 59 441 206 
L 441 856 
Q 825 641 1194 531 
Q 1563 422 1919 422 
Q 2459 422 2753 634 
Q 3047 847 3047 1241 
Q 3047 1584 2836 1778 
Q 2625 1972 2144 2069 
L 1759 2144 
Q 1053 2284 737 2584 
Q 422 2884 422 3419 
Q 422 4038 858 4394 
Q 1294 4750 2059 4750 
Q 2388 4750 2728 4690 
Q 3069 4631 3425 4513 
z
" transform="scale(0.015625)"/>
      <path id="DejaVuSans-2d" d="M 313 2009 
L 1997 2009 
L 1997 1497 
L 313 1497 
L 313 2009 
z
" transform="scale(0.015625)"/>
     </defs>
     <use xlink:href="#DejaVuSans-53"/>
     <use xlink:href="#DejaVuSans-74" transform="translate(63.476562 0)"/>
     <use xlink:href="#DejaVuSans-61" transform="translate(102.685547 0)"/>
     <use xlink:href="#DejaVuSans-6e" transform="translate(163.964844 0)"/>
     <use xlink:href="#DejaVuSans-64" transform="translate(227.34375 0)"/>
     <use xlink:href="#DejaVuSans-61" transform="translate(290.820312 0)"/>
     <use xlink:href="#DejaVuSans-72" transform="translate(352.099609 0)"/>
     <use xlink:href="#DejaVuSans-64" transform="translate(391.462891 0)"/>
     <use xlink:href="#DejaVuSans-69" transform="translate(454.939453 0)"/>
     <use xlink:href="#DejaVuSans-7a" transform="translate(482.722656 0)"/>
     <use xlink:href="#DejaVuSans-65" transform="translate(535.212891 0)"/>
     <use xlink:href="#DejaVuSans-64" transform="translate(596.736328 0)"/>
     <use xlink:href="#DejaVuSans-20" transform="translate(660.212891 0)"/>
     <use xlink:href="#DejaVuSans-63" transform="translate(692 0)"/>
     <use xlink:href="#DejaVuSans-6c" transform="translate(746.980469 0)"/>
     <use xlink:href="#DejaVuSans-61" transform="translate(774.763672 0)"/>
     <use xlink:href="#DejaVuSans-73" transform="translate(836.042969 0)"/>
     <use xlink:href="#DejaVuSans-73" transform="translate(888.142578 0)"/>
     <use xlink:href="#DejaVuSans-2d" transform="translate(940.242188 0)"/>
     <use xlink:href="#DejaVuSans-73" transform="translate(976.326172 0)"/>
     <use xlink:href="#DejaVuSans-65" transform="translate(1028.425781 0)"/>
     <use xlink:href="#DejaVuSans-70" transform="translate(1089.949219 0)"/>
     <use xlink:href="#DejaVuSans-61" transform="translate(1153.425781 0)"/>
     <use xlink:href="#DejaVuSans-72" transform="translate(1214.705078 0)"/>
     <use xlink:href="#DejaVuSans-61" transform="translate(1255.818359 0)"/>
     <use xlink:href="#DejaVuSans-74" transform="translate(1317.097656 0)"/>
     <use xlink:href="#DejaVuSans-69" transform="translate(1356.306641 0)"/>
     <use xlink:href="#DejaVuSans-6f" transform="translate(1384.089844 0)"/>
     <use xlink:href="#DejaVuSans-6e" transform="translate(1445.271484 0)"/>
     <use xlink:href="#DejaVuSans-20" transform="translate(1508.650391 0)"/>
     <use xlink:href="#DejaVuSans-65" transform="translate(1540.4375 0)"/>
     <use xlink:href="#DejaVuSans-66" transform="translate(1601.960938 0)"/>
     <use xlink:href="#DejaVuSans-66" transform="translate(1637.166016 0)"/>
     <use xlink:href="#DejaVuSans-65" transform="translate(1672.371094 0)"/>
     <use xlink:href="#DejaVuSans-63" transform="translate(1733.894531 0)"/>
     <use xlink:href="#DejaVuSans-74" transform="translate(1788.875 0)"/>
     <use xlink:href="#DejaVuSans-20" transform="translate(1828.083984 0)"/>
     <use xlink:href="#DejaVuSans-73" transform="translate(1859.871094 0)"/>
     <use xlink:href="#DejaVuSans-69" transform="translate(1911.970703 0)"/>
     <use xlink:href="#DejaVuSans-7a" transform="translate(1939.753906 0)"/>
     <use xlink:href="#DejaVuSans-65" transform="translate(1992.244141 0)"/>
     <use xlink:href="#DejaVuSans-20" transform="translate(2053.767578 0)"/>
     <use xlink:href="#DejaVuSans-62" transform="translate(2085.554688 0)"/>
     <use xlink:href="#DejaVuSans-79" transform="translate(2149.03125 0)"/>
     <use xlink:href="#DejaVuSans-20" transform="translate(2208.210938 0)"/>
     <use xlink:href="#DejaVuSans-65" transform="translate(2239.998047 0)"/>
     <use xlink:href="#DejaVuSans-6d" transform="translate(2301.521484 0)"/>
     <use xlink:href="#DejaVuSans-62" transform="translate(2398.933594 0)"/>
     <use xlink:href="#DejaVuSans-65" transform="translate(2462.410156 0)"/>
     <use xlink:href="#DejaVuSans-64" transform="translate(2523.933594 0)"/>
     <use xlink:href="#DejaVuSans-64" transform="translate(2587.410156 0)"/>
     <use xlink:href="#DejaVuSans-69" transform="translate(2650.886719 0)"/>
     <use xlink:href="#DejaVuSans-6e" transform="translate(2678.669922 0)"/>
     <use xlink:href="#DejaVuSans-67" transform="translate(2742.048828 0)"/>
    </g>
    <!-- (d ≥ 0.2 small, ≥ 0.5 medium, ≥ 0.8 large) -->
    <g transform="translate(154.283391 35.856) scale(0.12 -0.12)">
     <defs>
      <path id="DejaVuSans-2265" d="M 678 3175 
L 678 3725 
L 4684 2578 
L 4684 2047 
L 678 897 
L 678 1453 
L 3681 2309 
L 678 3175 
z
M 4684 531 
L 4684 0 
L 678 0 
L 678 531 
L 4684 531 
z
" transform="scale(0.015625)"/>
      <path id="DejaVuSans-2c" d="M 750 794 
L 1409 794 
L 1409 256 
L 897 -744 
L 494 -744 
L 750 256 
L 750 794 
z
" transform="scale(0.015625)"/>
     </defs>
     <use xlink:href="#DejaVuSans-28"/>
     <use xlink:href="#DejaVuSans-64" transform="translate(39.013672 0)"/>
     <use xlink:href="#DejaVuSans-20" transform="translate(102.490234 0)"/>
     <use xlink:href="#DejaVuSans-2265" transform="translate(134.277344 0)"/>
     <use xlink:href="#DejaVuSans-20" transform="translate(218.066406 0)"/>
     <use xlink:href="#DejaVuSans-30" transform="translate(249.853516 0)"/>
     <use xlink:href="#DejaVuSans-2e" transform="translate(313.476562 0)"/>
     <use xlink:href="#DejaVuSans-32" transform="translate(345.263672 0)"/>
     <use xlink:href="#DejaVuSans-20" transform="translate(408.886719 0)"/>
     <use xlink:href="#DejaVuSans-73" transform="translate(440.673828 0)"/>
     <use xlink:href="#DejaVuSans-6d" transform="translate(492.773438 0)"/>
     <use xlink:href="#DejaVuSans-61" transform="translate(590.185547 0)"/>
     <use xlink:href="#DejaVuSans-6c" transform="translate(651.464844 0)"/>
     <use xlink:href="#DejaVuSans-6c" transform="translate(679.248047 0)"/>
     <use xlink:href="#DejaVuSans-2c" transform="translate(707.03125 0)"/>
     <use xlink:href="#DejaVuSans-20" transform="translate(738.818359 0)"/>
     <use xlink:href="#DejaVuSans-2265" transform="translate(770.605469 0)"/>
     <use xlink:href="#DejaVuSans-20" transform="translate(854.394531 0)"/>
     <use xlink:href="#DejaVuSans-30" transform="translate(886.181641 0)"/>
     <use xlink:href="#DejaVuSans-2e" transform="translate(949.804688 0)"/>
     <use xlink:href="#DejaVuSans-35" transform="translate(981.591797 0)"/>
     <use xlink:href="#DejaVuSans-20" transform="translate(1045.214844 0)"/>
     <use xlink:href="#DejaVuSans-6d" transform="translate(1077.001953 0)"/>
     <use xlink:href="#DejaVuSans-65" transform="translate(1174.414062 0)"/>
     <use xlink:href="#DejaVuSans-64" transform="translate(1235.9375 0)"/>
     <use xlink:href="#DejaVuSans-69" transform="translate(1299.414062 0)"/>
     <use xlink:href="#DejaVuSans-75" transform="translate(1327.197266 0)"/>
     <use xlink:href="#DejaVuSans-6d" transform="translate(1390.576172 0)"/>
     <use xlink:href="#DejaVuSans-2c" transform="translate(1487.988281 0)"/>
     <use xlink:href="#DejaVuSans-20" transform="translate(1519.775391 0)"/>
     <use xlink:href="#DejaVuSans-2265" transform="translate(1551.5625 0)"/>
     <use xlink:href="#DejaVuSans-20" transform="translate(1635.351562 0)"/>
     <use xlink:href="#DejaVuSans-30" transform="translate(1667.138672 0)"/>
     <use xlink:href="#DejaVuSans-2e" transform="translate(1730.761719 0)"/>
     <use xlink:href="#DejaVuSans-38" transform="translate(1762.548828 0)"/>
     <use xlink:href="#DejaVuSans-20" transform="translate(1826.171875 0)"/>
     <use xlink:href="#DejaVuSans-6c" transform="translate(1857.958984 0)"/>
     <use xlink:href="#DejaVuSans-61" transform="translate(1885.742188 0)"/>
     <use xlink:href="#DejaVuSans-72" transform="translate(1947.021484 0)"/>
     <use xlink:href="#DejaVuSans-67" transform="translate(1986.384766 0)"/>
     <use xlink:href="#DejaVuSans-65" transform="translate(2049.861328 0)"/>
     <use xlink:href="#DejaVuSans-29" transform="translate(2111.384766 0)"/>
    </g>
   </g>
   <g id="legend_1">
    <g id="patch_31">
     <path d="M 419.049907 95.226 
L 513.289907 95.226 
Q 514.889907 95.226 514.889907 93.626 
L 514.889907 47.456 
Q 514.889907 45.856 513.289907 45.856 
L 419.049907 45.856 
Q 417.449907 45.856 417.449907 47.456 
L 417.449907 93.626 
Q 417.449907 95.226 419.049907 95.226 
z
" style="fill: #ffffff; opacity: 0.8; stroke: #cccccc; stroke-linejoin: miter"/>
    </g>
    <g id="patch_32">
     <path d="M 420.649907 55.13475 
L 436.649907 55.13475 
L 436.649907 49.53475 
L 420.649907 49.53475 
z
" style="fill: #2166ac; stroke: #2166ac; stroke-linejoin: miter"/>
    </g>
    <g id="text_27">
     <!-- ESM-2 -->
     <g transform="translate(443.049907 55.13475) scale(0.08 -0.08)">
      <defs>
       <path id="DejaVuSans-45" d="M 628 4666 
L 3578 4666 
L 3578 4134 
L 1259 4134 
L 1259 2753 
L 3481 2753 
L 3481 2222 
L 1259 2222 
L 1259 531 
L 3634 531 
L 3634 0 
L 628 0 
L 628 4666 
z
" transform="scale(0.015625)"/>
       <path id="DejaVuSans-4d" d="M 628 4666 
L 1569 4666 
L 2759 1491 
L 3956 4666 
L 4897 4666 
L 4897 0 
L 4281 0 
L 4281 4097 
L 3078 897 
L 2444 897 
L 1241 4097 
L 1241 0 
L 628 0 
L 628 4666 
z
" transform="scale(0.015625)"/>
      </defs>
      <use xlink:href="#DejaVuSans-45"/>
      <use xlink:href="#DejaVuSans-53" transform="translate(63.183594 0)"/>
      <use xlink:href="#DejaVuSans-4d" transform="translate(126.660156 0)"/>
      <use xlink:href="#DejaVuSans-2d" transform="translate(212.939453 0)"/>
      <use xlink:href="#DejaVuSans-32" transform="translate(249.023438 0)"/>
     </g>
    </g>
    <g id="patch_33">
     <path d="M 420.649907 66.87725 
L 436.649907 66.87725 
L 436.649907 61.27725 
L 420.649907 61.27725 
z
" style="fill: #b2182b; stroke: #b2182b; stroke-linejoin: miter"/>
    </g>
    <g id="text_28">
     <!-- ProtT5 -->
     <g transform="translate(443.049907 66.87725) scale(0.08 -0.08)">
      <defs>
       <path id="DejaVuSans-50" d="M 1259 4147 
L 1259 2394 
L 2053 2394 
Q 2494 2394 2734 2622 
Q 2975 2850 2975 3272 
Q 2975 3691 2734 3919 
Q 2494 4147 2053 4147 
L 1259 4147 
z
M 628 4666 
L 2053 4666 
Q 2838 4666 3239 4311 
Q 3641 3956 3641 3272 
Q 3641 2581 3239 2228 
Q 2838 1875 2053 1875 
L 1259 1875 
L 1259 0 
L 628 0 
L 628 4666 
z
" transform="scale(0.015625)"/>
       <path id="DejaVuSans-54" d="M -19 4666 
L 3928 4666 
L 3928 4134 
L 2272 4134 
L 2272 0 
L 1638 0 
L 1638 4134 
L -19 4134 
L -19 4666 
z
" transform="scale(0.015625)"/>
      </defs>
      <use xlink:href="#DejaVuSans-50"/>
      <use xlink:href="#DejaVuSans-72" transform="translate(58.552734 0)"/>
      <use xlink:href="#DejaVuSans-6f" transform="translate(97.416016 0)"/>
      <use xlink:href="#DejaVuSans-74" transform="translate(158.597656 0)"/>
      <use xlink:href="#DejaVuSans-54" transform="translate(197.806641 0)"/>
      <use xlink:href="#DejaVuSans-35" transform="translate(258.890625 0)"/>
     </g>
    </g>
    <g id="patch_34">
     <path d="M 420.649907 78.61975 
L 436.649907 78.61975 
L 436.649907 73.01975 
L 420.649907 73.01975 
z
" style="fill: #d6604d; stroke: #d6604d; stroke-linejoin: miter"/>
    </g>
    <g id="text_29">
     <!-- k-mer -->
     <g transform="translate(443.049907 78.61975) scale(0.08 -0.08)">
      <use xlink:href="#DejaVuSans-6b"/>
      <use xlink:href="#DejaVuSans-2d" transform="translate(57.910156 0)"/>
      <use xlink:href="#DejaVuSans-6d" transform="translate(93.994141 0)"/>
      <use xlink:href="#DejaVuSans-65" transform="translate(191.40625 0)"/>
      <use xlink:href="#DejaVuSans-72" transform="translate(252.929688 0)"/>
     </g>
    </g>
    <g id="patch_35">
     <path d="M 420.649907 90.36225 
L 436.649907 90.36225 
L 436.649907 84.76225 
L 420.649907 84.76225 
z
" style="fill: url(#h65d9bb71c2); stroke: #ffffff; stroke-linejoin: miter"/>
    </g>
    <g id="text_30">
     <!-- O-type (hatched) -->
     <g transform="translate(443.049907 90.36225) scale(0.08 -0.08)">
      <defs>
       <path id="DejaVuSans-4f" d="M 2522 4238 
Q 1834 4238 1429 3725 
Q 1025 3213 1025 2328 
Q 1025 1447 1429 934 
Q 1834 422 2522 422 
Q 3209 422 3611 934 
Q 4013 1447 4013 2328 
Q 4013 3213 3611 3725 
Q 3209 4238 2522 4238 
z
M 2522 4750 
Q 3503 4750 4090 4092 
Q 4678 3434 4678 2328 
Q 4678 1225 4090 567 
Q 3503 -91 2522 -91 
Q 1538 -91 948 565 
Q 359 1222 359 2328 
Q 359 3434 948 4092 
Q 1538 4750 2522 4750 
z
" transform="scale(0.015625)"/>
      </defs>
      <use xlink:href="#DejaVuSans-4f"/>
      <use xlink:href="#DejaVuSans-2d" transform="translate(81.460938 0)"/>
      <use xlink:href="#DejaVuSans-74" transform="translate(117.544922 0)"/>
      <use xlink:href="#DejaVuSans-79" transform="translate(156.753906 0)"/>
      <use xlink:href="#DejaVuSans-70" transform="translate(215.933594 0)"/>
      <use xlink:href="#DejaVuSans-65" transform="translate(279.410156 0)"/>
      <use xlink:href="#DejaVuSans-20" transform="translate(340.933594 0)"/>
      <use xlink:href="#DejaVuSans-28" transform="translate(372.720703 0)"/>
      <use xlink:href="#DejaVuSans-68" transform="translate(411.734375 0)"/>
      <use xlink:href="#DejaVuSans-61" transform="translate(475.113281 0)"/>
      <use xlink:href="#DejaVuSans-74" transform="translate(536.392578 0)"/>
      <use xlink:href="#DejaVuSans-63" transform="translate(575.601562 0)"/>
      <use xlink:href="#DejaVuSans-68" transform="translate(630.582031 0)"/>
      <use xlink:href="#DejaVuSans-65" transform="translate(693.960938 0)"/>
      <use xlink:href="#DejaVuSans-64" transform="translate(755.484375 0)"/>
      <use xlink:href="#DejaVuSans-29" transform="translate(818.960938 0)"/>
     </g>
    </g>
   </g>
  </g>
 </g>
 <defs>
  <clipPath id="p5c1499b2d2">
   <rect x="47.72" y="41.856" width="471.169907" height="230.531347"/>
  </clipPath>
 </defs>
 <defs>
  <pattern id="h31e86b2ef5" patternUnits="userSpaceOnUse" x="0" y="0" width="72" height="72">
   <rect x="0" y="0" width="73" height="73" fill="#d6604d"/>
   <path d="M -36 36 
L 36 -36 
M -32 40 
L 40 -32 
M -28 44 
L 44 -28 
M -24 48 
L 48 -24 
M -20 52 
L 52 -20 
M -16 56 
L 56 -16 
M -12 60 
L 60 -12 
M -8 64 
L 64 -8 
M -4 68 
L 68 -4 
M 0 72 
L 72 0 
M 4 76 
L 76 4 
M 8 80 
L 80 8 
M 12 84 
L 84 12 
M 16 88 
L 88 16 
M 20 92 
L 92 20 
M 24 96 
L 96 24 
M 28 100 
L 100 28 
M 32 104 
L 104 32 
M 36 108 
L 108 36 
" style="fill: #000000; stroke: #000000; stroke-width: 1.0; stroke-linecap: butt; stroke-linejoin: miter; stroke-opacity: 0.7"/>
  </pattern>
  <pattern id="hd945a8f491" patternUnits="userSpaceOnUse" x="0" y="0" width="72" height="72">
   <rect x="0" y="0" width="73" height="73" fill="#b2182b"/>
   <path d="M -36 36 
L 36 -36 
M -32 40 
L 40 -32 
M -28 44 
L 44 -28 
M -24 48 
L 48 -24 
M -20 52 
L 52 -20 
M -16 56 
L 56 -16 
M -12 60 
L 60 -12 
M -8 64 
L 64 -8 
M -4 68 
L 68 -4 
M 0 72 
L 72 0 
M 4 76 
L 76 4 
M 8 80 
L 80 8 
M 12 84 
L 84 12 
M 16 88 
L 88 16 
M 20 92 
L 92 20 
M 24 96 
L 96 24 
M 28 100 
L 100 28 
M 32 104 
L 104 32 
M 36 108 
L 108 36 
" style="fill: #000000; stroke: #000000; stroke-width: 1.0; stroke-linecap: butt; stroke-linejoin: miter; stroke-opacity: 0.7"/>
  </pattern>
  <pattern id="h76e9d64ed4" patternUnits="userSpaceOnUse" x="0" y="0" width="72" height="72">
   <rect x="0" y="0" width="73" height="73" fill="#2166ac"/>
   <path d="M -36 36 
L 36 -36 
M -32 40 
L 40 -32 
M -28 44 
L 44 -28 
M -24 48 
L 48 -24 
M -20 52 
L 52 -20 
M -16 56 
L 56 -16 
M -12 60 
L 60 -12 
M -8 64 
L 64 -8 
M -4 68 
L 68 -4 
M 0 72 
L 72 0 
M 4 76 
L 76 4 
M 8 80 
L 80 8 
M 12 84 
L 84 12 
M 16 88 
L 88 16 
M 20 92 
L 92 20 
M 24 96 
L 96 24 
M 28 100 
L 100 28 
M 32 104 
L 104 32 
M 36 108 
L 108 36 
" style="fill: #000000; stroke: #000000; stroke-width: 1.0; stroke-linecap: butt; stroke-linejoin: miter; stroke-opacity: 0.7"/>
  </pattern>
  <pattern id="h65d9bb71c2" patternUnits="userSpaceOnUse" x="0" y="0" width="72" height="72">
   <rect x="0" y="0" width="73" height="73" fill="#ffffff"/>
   <path d="M -36 36 
L 36 -36 
M -32 40 
L 40 -32 
M -28 44 
L 44 -28 
M -24 48 
L 48 -24 
M -20 52 
L 52 -20 
M -16 56 
L 56 -16 
M -12 60 
L 60 -12 
M -8 64 
L 64 -8 
M -4 68 
L 68 -4 
M 0 72 
L 72 0 
M 4 76 
L 76 4 
M 8 80 
L 80 8 
M 12 84 
L 84 12 
M 16 88 
L 88 16 
M 20 92 
L 92 20 
M 24 96 
L 96 24 
M 28 100 
L 100 28 
M 32 104 
L 104 32 
M 36 108 
L 108 36 
" style="fill: #ffffff; stroke: #ffffff; stroke-width: 1.0; stroke-linecap: butt; stroke-linejoin: miter"/>
  </pattern>
 </defs>
</svg>
